<svg height='100px' width='100px'  fill="#000000" xmlns="http://www.w3.org/2000/svg" viewBox="0 0 64 64" x="0px" y="0px"><title>earth, environment, ecology, green, planet, plant, tree</title><g><path d="M49.4,47.13a4.52,4.52,0,0,1-2.11-2.22c-.1-.25-.17-.51-.25-.77a3.07,3.07,0,0,0-.24-.69.74.74,0,0,0-.12-.13l0,0a2.75,2.75,0,0,1-.52.43,1.78,1.78,0,0,1-1.82-.05,2.39,2.39,0,0,1-1.13-2,4.39,4.39,0,0,1,.66-2c.09-.17.18-.34.26-.51a9.35,9.35,0,0,0,.53-3.94v-.16L44.5,35a7.23,7.23,0,0,1-2.34-2.19L42,32.54a2.82,2.82,0,0,0-.74-.9,1.73,1.73,0,0,0-.57.89.92.92,0,0,1-.19.91,1,1,0,0,1-.92.31c-1-.15-1.06-.14-1.4.18s-.4.39-.6.59A8,8,0,0,1,35.82,36a3.23,3.23,0,0,1-3.93-.34,3.89,3.89,0,0,1-.77-2.9c0-.25,0-.49,0-.72h0a1.37,1.37,0,0,1-1.45-.63L28.42,29.9a2.43,2.43,0,0,1-.57-1.13,2.38,2.38,0,0,1,.25-1.37l0-.1a5.34,5.34,0,0,0,.35-3.22c0-.2-.08-.38-.13-.56a4.91,4.91,0,0,1-.19-2,20.39,20.39,0,0,0-10.5,5.57,4.91,4.91,0,0,1,1.66,1,.94.94,0,0,1,.1.1A5.44,5.44,0,0,1,21.15,32a9.18,9.18,0,0,1,0,1.18,4,4,0,0,0,0,1.49,4.22,4.22,0,0,0,1,1.37c.12.13.24.25.35.38a3.77,3.77,0,0,1,1.15,3.19,4.11,4.11,0,0,1-.88,1.73,2.58,2.58,0,0,0-.53.93c-.07.54.58,1.19,1.16,1.77,1.67,1.69,1.6,3,1.24,3.83a1,1,0,0,1-.5.5,2.62,2.62,0,0,1-1.13.24,5.61,5.61,0,0,1-2-.49,3.5,3.5,0,0,0-1.42-.39c-.15,0-.29,0-.43,0a3,3,0,0,1-1.53-.1,2.8,2.8,0,0,1-1.65-2.23c0-.14,0-.27-.08-.41a3,3,0,0,0-.31-1,2.87,2.87,0,0,0-1.56-.7l-.21,0-2-.51a20.3,20.3,0,0,0,39.52,5.18A8.3,8.3,0,0,1,49.4,47.13Zm-6,3.78a26.46,26.46,0,0,1-3.76,3,1,1,0,0,1-.55.17,1,1,0,0,1-.34-.06,2.76,2.76,0,0,1-1.54-1.44l-.09-.24a1,1,0,0,0-.06-.16,3.73,3.73,0,0,0-.51-.17l-.11,0a7.94,7.94,0,0,1-1.6-.66,2,2,0,0,1-.74-.61,1.93,1.93,0,0,1,.22-2.35,4.89,4.89,0,0,1,.45-.46,2.36,2.36,0,0,0,.32-.35,2.43,2.43,0,0,0,.21-.95,3.22,3.22,0,0,1,.83-2.16,3.33,3.33,0,0,1,2.3-.75,4.48,4.48,0,0,1,2.05.45,2.89,2.89,0,0,1,1.42,2.58,4.05,4.05,0,0,0,.09.66,3.54,3.54,0,0,0,.49.18c1.07.32,1.69,1,1.69,1.84A2.13,2.13,0,0,1,43.37,50.91Z"></path><path d="M22.77,46.56a6.54,6.54,0,0,1-1.08-.35,6,6,0,0,0-2.13-.52,5.16,5.16,0,0,0-.67.05,2,2,0,0,1-.59,0c-.13,0-.3-.31-.4-.79,0-.11,0-.23-.07-.35a4.42,4.42,0,0,0-.65-1.81,4.37,4.37,0,0,0-2.71-1.5l-.76-.19-2-.49h0A20.13,20.13,0,0,1,16.15,28.8a3,3,0,0,1,1.84.78l.06.06A3.48,3.48,0,0,1,19.16,32a7.66,7.66,0,0,1-.05.95,5.94,5.94,0,0,0,.14,2.27,5.79,5.79,0,0,0,1.41,2.1l.32.35c.36.42.78,1,.69,1.5a2.59,2.59,0,0,1-.53.91,4.07,4.07,0,0,0-.9,1.85c-.21,1.52.91,2.63,1.72,3.45A3.44,3.44,0,0,1,22.77,46.56Z"></path><path d="M20.92,6.44a1,1,0,0,0,.53,1.31,18.45,18.45,0,0,1,7,4.87,13.9,13.9,0,0,1,1.2,1.6,6.84,6.84,0,0,1-4.14,1.6,5.28,5.28,0,0,1-3-1c-2.08-1.39-3.37-3.31-4.87-5.53l-.16-.24a5,5,0,0,0-3-2.25,1,1,0,0,1-.82-.77A1,1,0,0,1,14,5C14.07,5,22.9-1,29.06,4.79A7,7,0,0,1,31,12.71a16.2,16.2,0,0,0-1.53-1.91,20.62,20.62,0,0,0-7.2-4.89A1,1,0,0,0,20.92,6.44Z"></path><path d="M42,49.5a24.35,24.35,0,0,1-2.88,2.37.41.41,0,0,1,0-.09L39,51.65a2.54,2.54,0,0,0-.27-.56,2.61,2.61,0,0,0-1.63-1l-.1,0a5.7,5.7,0,0,1-1.12-.45l.27-.27a3.86,3.86,0,0,0,.63-.72,4.08,4.08,0,0,0,.51-1.8,1.8,1.8,0,0,1,.23-.94,2.52,2.52,0,0,1,2,0c.28.16.33.29.4,1a5.17,5.17,0,0,0,.19,1.17,2.41,2.41,0,0,0,1.8,1.41Z"></path><path d="M52.3,41.46A20.13,20.13,0,0,1,51.8,46a5.67,5.67,0,0,1-1.86-.84,2.27,2.27,0,0,1-.8-1A5.6,5.6,0,0,1,49,43.6a4.88,4.88,0,0,0-.44-1.15,2.12,2.12,0,0,0-2.74-1,3,3,0,0,0-.54.43.37.37,0,0,1-.07-.18,2.84,2.84,0,0,1,.43-1.11l.31-.61a11.12,11.12,0,0,0,.71-4.79,2.26,2.26,0,0,0-.25-1.17,2.35,2.35,0,0,0-.83-.77l-.09,0a5.36,5.36,0,0,1-1.63-1.55l-.16-.23a3.24,3.24,0,0,0-2.31-1.84,2.32,2.32,0,0,0-1.93,1,4.3,4.3,0,0,0-.58,1,2.8,2.8,0,0,0-2,.8c-.23.21-.45.44-.67.66a6.48,6.48,0,0,1-1.31,1.14c-.48.27-1.17.36-1.47,0s-.25-.75-.24-1.51a8.43,8.43,0,0,0-.07-1.41,2,2,0,0,0-1-1.48,1.35,1.35,0,0,0-1.06,0l-1-1.2s-.13-.16-.15-.16a1.64,1.64,0,0,1,.11-.3l0-.1a7.4,7.4,0,0,0,.47-4.4c0-.16-.06-.31-.1-.46s0-.13,0-.19a1.94,1.94,0,0,1,.09-1.81c.45,0,.9-.06,1.36-.06a12.83,12.83,0,0,0-.56-3.49v0a1.71,1.71,0,0,0-.09-.3h0a13.43,13.43,0,0,0-1.5-3.13,7.35,7.35,0,0,0,1.09-1.05,1.67,1.67,0,0,0,.12-.16l.15-.3a16,16,0,0,1,1.51,2.74,10.57,10.57,0,0,1,2.78-1.66,7.36,7.36,0,0,1,3.37-4.9c2.22-1.21,5.14-.92,8.68.84a1,1,0,0,1,.52.66,1,1,0,0,1-.15.82c-.15.21-3.74,5.19-7.89,5.61a5.25,5.25,0,0,1-3.88-1.13,8.39,8.39,0,0,0-2.71,1.8h0a16,16,0,0,1,.56,3.74h0A20.31,20.31,0,0,1,52.3,41.46Z"></path></g></svg>