<?xml version="1.0" encoding="UTF-8" standalone="no"?>
<svg
   xmlns:dc="http://purl.org/dc/elements/1.1/"
   xmlns:cc="http://creativecommons.org/ns#"
   xmlns:rdf="http://www.w3.org/1999/02/22-rdf-syntax-ns#"
   xmlns:svg="http://www.w3.org/2000/svg"
   xmlns="http://www.w3.org/2000/svg"
   xmlns:sodipodi="http://sodipodi.sourceforge.net/DTD/sodipodi-0.dtd"
   xmlns:inkscape="http://www.inkscape.org/namespaces/inkscape"
   inkscape:version="1.0 (4035a4f, 2020-05-01)"
   sodipodi:docname="noun_environment_3325927.svg"
   id="svg5591"
   version="1.1"
   y="0px"
   x="0px"
   viewBox="0 0 64 64"
   width="2400px"
   height="2400px">
  <metadata
     id="metadata5597">
    <rdf:RDF>
      <cc:Work
         rdf:about="">
        <dc:format>image/svg+xml</dc:format>
        <dc:type
           rdf:resource="http://purl.org/dc/dcmitype/StillImage" />
      </cc:Work>
    </rdf:RDF>
  </metadata>
  <defs
     id="defs5595" />
  <sodipodi:namedview
     inkscape:current-layer="svg5591"
     inkscape:window-maximized="0"
     inkscape:window-y="0"
     inkscape:window-x="0"
     inkscape:cy="1200"
     inkscape:cx="1200"
     inkscape:zoom="0.30625"
     showgrid="false"
     id="namedview5593"
     inkscape:window-height="1050"
     inkscape:window-width="1680"
     inkscape:pageshadow="2"
     inkscape:pageopacity="0"
     guidetolerance="10"
     gridtolerance="10"
     objecttolerance="10"
     borderopacity="1"
     bordercolor="#666666"
     pagecolor="#ffffff" />
  <title
     id="title5577">earth, environment, ecology, green, planet, plant, tree</title>
  <path
     style="stroke:#669fdb;stroke-opacity:1;fill:#669fdb;fill-opacity:1"
     d="M 49.4,47.13 A 4.52,4.52 0 0 1 47.29,44.91 C 47.19,44.66 47.12,44.4 47.04,44.14 A 3.07,3.07 0 0 0 46.8,43.45 0.74,0.74 0 0 0 46.68,43.32 v 0 a 2.75,2.75 0 0 1 -0.52,0.43 1.78,1.78 0 0 1 -1.82,-0.05 2.39,2.39 0 0 1 -1.13,-2 4.39,4.39 0 0 1 0.66,-2 c 0.09,-0.17 0.18,-0.34 0.26,-0.51 a 9.35,9.35 0 0 0 0.53,-3.94 V 35.09 L 44.5,35 A 7.23,7.23 0 0 1 42.16,32.81 L 42,32.54 a 2.82,2.82 0 0 0 -0.74,-0.9 1.73,1.73 0 0 0 -0.57,0.89 0.92,0.92 0 0 1 -0.19,0.91 1,1 0 0 1 -0.92,0.31 c -1,-0.15 -1.06,-0.14 -1.4,0.18 -0.34,0.32 -0.4,0.39 -0.6,0.59 A 8,8 0 0 1 35.82,36 3.23,3.23 0 0 1 31.89,35.66 3.89,3.89 0 0 1 31.12,32.76 c 0,-0.25 0,-0.49 0,-0.72 v 0 A 1.37,1.37 0 0 1 29.67,31.41 L 28.42,29.9 A 2.43,2.43 0 0 1 27.85,28.77 2.38,2.38 0 0 1 28.1,27.4 v -0.1 a 5.34,5.34 0 0 0 0.35,-3.22 c 0,-0.2 -0.08,-0.38 -0.13,-0.56 a 4.91,4.91 0 0 1 -0.19,-2 20.39,20.39 0 0 0 -10.5,5.57 4.91,4.91 0 0 1 1.66,1 0.94,0.94 0 0 1 0.1,0.1 5.44,5.44 0 0 1 1.76,3.81 9.18,9.18 0 0 1 0,1.18 4,4 0 0 0 0,1.49 4.22,4.22 0 0 0 1,1.37 c 0.12,0.13 0.24,0.25 0.35,0.38 a 3.77,3.77 0 0 1 1.15,3.19 4.11,4.11 0 0 1 -0.88,1.73 2.58,2.58 0 0 0 -0.53,0.93 c -0.07,0.54 0.58,1.19 1.16,1.77 1.67,1.69 1.6,3 1.24,3.83 a 1,1 0 0 1 -0.5,0.5 2.62,2.62 0 0 1 -1.13,0.24 5.61,5.61 0 0 1 -2,-0.49 3.5,3.5 0 0 0 -1.42,-0.39 c -0.15,0 -0.29,0 -0.43,0 a 3,3 0 0 1 -1.53,-0.1 2.8,2.8 0 0 1 -1.65,-2.23 c 0,-0.14 0,-0.27 -0.08,-0.41 a 3,3 0 0 0 -0.31,-1 2.87,2.87 0 0 0 -1.56,-0.7 h -0.21 l -2,-0.51 a 20.3,20.3 0 0 0 39.52,5.18 8.3,8.3 0 0 1 -1.94,-0.83 z m -6,3.78 a 26.46,26.46 0 0 1 -3.76,3 1,1 0 0 1 -0.55,0.17 1,1 0 0 1 -0.34,-0.06 2.76,2.76 0 0 1 -1.54,-1.44 l -0.09,-0.24 a 1,1 0 0 0 -0.06,-0.16 3.73,3.73 0 0 0 -0.51,-0.17 h -0.11 a 7.94,7.94 0 0 1 -1.6,-0.66 2,2 0 0 1 -0.74,-0.61 1.93,1.93 0 0 1 0.22,-2.35 4.89,4.89 0 0 1 0.45,-0.46 2.36,2.36 0 0 0 0.32,-0.35 2.43,2.43 0 0 0 0.21,-0.95 3.22,3.22 0 0 1 0.83,-2.16 3.33,3.33 0 0 1 2.3,-0.75 4.48,4.48 0 0 1 2.05,0.45 2.89,2.89 0 0 1 1.42,2.58 4.05,4.05 0 0 0 0.09,0.66 3.54,3.54 0 0 0 0.49,0.18 c 1.07,0.32 1.69,1 1.69,1.84 a 2.13,2.13 0 0 1 -0.8,1.48 z"
     id="path5579" />
  <path
     style="fill:#79b616;fill-opacity:1;stroke:#79b616;stroke-opacity:1"
     d="m 22.77,46.56 a 6.54,6.54 0 0 1 -1.08,-0.35 6,6 0 0 0 -2.13,-0.52 5.16,5.16 0 0 0 -0.67,0.05 2,2 0 0 1 -0.59,0 c -0.13,0 -0.3,-0.31 -0.4,-0.79 0,-0.11 0,-0.23 -0.07,-0.35 a 4.42,4.42 0 0 0 -0.65,-1.81 4.37,4.37 0 0 0 -2.71,-1.5 l -0.76,-0.19 -2,-0.49 v 0 a 20.13,20.13 0 0 1 4.44,-11.81 3,3 0 0 1 1.84,0.78 l 0.06,0.06 a 3.48,3.48 0 0 1 1.11,2.36 7.66,7.66 0 0 1 -0.05,0.95 5.94,5.94 0 0 0 0.14,2.27 5.79,5.79 0 0 0 1.41,2.1 l 0.32,0.35 c 0.36,0.42 0.78,1 0.69,1.5 a 2.59,2.59 0 0 1 -0.53,0.91 4.07,4.07 0 0 0 -0.9,1.85 c -0.21,1.52 0.91,2.63 1.72,3.45 a 3.44,3.44 0 0 1 0.81,1.18 z"
     id="path5581" />
  <path
     style="fill:#79b617;fill-opacity:1;stroke:#79b616;stroke-opacity:1"
     d="m 20.92,6.44 a 1,1 0 0 0 0.53,1.31 18.45,18.45 0 0 1 7,4.87 13.9,13.9 0 0 1 1.2,1.6 6.84,6.84 0 0 1 -4.14,1.6 5.28,5.28 0 0 1 -3,-1 C 20.43,13.43 19.14,11.51 17.64,9.29 L 17.48,9.05 A 5,5 0 0 0 14.48,6.8 1,1 0 0 1 13.66,6.03 1,1 0 0 1 14,5 c 0.07,0 8.9,-6 15.06,-0.21 A 7,7 0 0 1 31,12.71 16.2,16.2 0 0 0 29.47,10.8 20.62,20.62 0 0 0 22.27,5.91 1,1 0 0 0 20.92,6.44 Z"
     id="path5583" />
  <path
     style="fill:#79b616;fill-opacity:1;stroke:#79b616;stroke-opacity:1"
     d="m 42,49.5 a 24.35,24.35 0 0 1 -2.88,2.37 0.41,0.41 0 0 1 0,-0.09 L 39,51.65 a 2.54,2.54 0 0 0 -0.27,-0.56 2.61,2.61 0 0 0 -1.63,-1 H 37 a 5.7,5.7 0 0 1 -1.12,-0.45 l 0.27,-0.27 a 3.86,3.86 0 0 0 0.63,-0.72 4.08,4.08 0 0 0 0.51,-1.8 1.8,1.8 0 0 1 0.23,-0.94 2.52,2.52 0 0 1 2,0 c 0.28,0.16 0.33,0.29 0.4,1 a 5.17,5.17 0 0 0 0.19,1.17 2.41,2.41 0 0 0 1.8,1.41 z"
     id="path5585" />
  <path
     style="stroke:#79b616;stroke-opacity:1;fill:#79b616;fill-opacity:1"
     d="m 52.3,41.46 a 20.13,20.13 0 0 1 -0.5,4.54 5.67,5.67 0 0 1 -1.86,-0.84 2.27,2.27 0 0 1 -0.8,-1 5.6,5.6 0 0 1 -0.14,-0.56 4.88,4.88 0 0 0 -0.44,-1.15 2.12,2.12 0 0 0 -2.74,-1 3,3 0 0 0 -0.54,0.43 0.37,0.37 0 0 1 -0.07,-0.18 2.84,2.84 0 0 1 0.43,-1.11 l 0.31,-0.61 a 11.12,11.12 0 0 0 0.71,-4.79 2.26,2.26 0 0 0 -0.25,-1.17 2.35,2.35 0 0 0 -0.83,-0.77 H 45.49 A 5.36,5.36 0 0 1 43.86,31.7 L 43.7,31.47 a 3.24,3.24 0 0 0 -2.31,-1.84 2.32,2.32 0 0 0 -1.93,1 4.3,4.3 0 0 0 -0.58,1 2.8,2.8 0 0 0 -2,0.8 c -0.23,0.21 -0.45,0.44 -0.67,0.66 a 6.48,6.48 0 0 1 -1.31,1.14 c -0.48,0.27 -1.17,0.36 -1.47,0 -0.3,-0.36 -0.25,-0.75 -0.24,-1.51 a 8.43,8.43 0 0 0 -0.07,-1.41 2,2 0 0 0 -1,-1.48 1.35,1.35 0 0 0 -1.06,0 l -1,-1.2 c 0,0 -0.13,-0.16 -0.15,-0.16 a 1.64,1.64 0 0 1 0.11,-0.3 v -0.1 a 7.4,7.4 0 0 0 0.47,-4.4 c 0,-0.16 -0.06,-0.31 -0.1,-0.46 -0.04,-0.15 0,-0.13 0,-0.19 a 1.94,1.94 0 0 1 0.09,-1.81 c 0.45,0 0.9,-0.06 1.36,-0.06 a 12.83,12.83 0 0 0 -0.56,-3.49 v 0 a 1.71,1.71 0 0 0 -0.09,-0.3 v 0 a 13.43,13.43 0 0 0 -1.5,-3.13 7.35,7.35 0 0 0 1.09,-1.05 1.67,1.67 0 0 0 0.12,-0.16 l 0.15,-0.3 a 16,16 0 0 1 1.51,2.74 10.57,10.57 0 0 1 2.78,-1.66 7.36,7.36 0 0 1 3.37,-4.9 c 2.22,-1.21 5.14,-0.92 8.68,0.84 a 1,1 0 0 1 0.52,0.66 1,1 0 0 1 -0.15,0.82 c -0.15,0.21 -3.74,5.19 -7.89,5.61 a 5.25,5.25 0 0 1 -3.88,-1.13 8.39,8.39 0 0 0 -2.71,1.8 v 0 a 16,16 0 0 1 0.56,3.74 v 0 A 20.31,20.31 0 0 1 52.3,41.46 Z"
     id="path5587" />
</svg>
