<?xml version="1.0" encoding="UTF-8" standalone="no"?>
<svg
   xmlns:dc="http://purl.org/dc/elements/1.1/"
   xmlns:cc="http://creativecommons.org/ns#"
   xmlns:rdf="http://www.w3.org/1999/02/22-rdf-syntax-ns#"
   xmlns:svg="http://www.w3.org/2000/svg"
   xmlns="http://www.w3.org/2000/svg"
   xmlns:sodipodi="http://sodipodi.sourceforge.net/DTD/sodipodi-0.dtd"
   xmlns:inkscape="http://www.inkscape.org/namespaces/inkscape"
   inkscape:version="1.0 (4035a4f, 2020-05-01)"
   sodipodi:docname="noun_news_651363.svg"
   id="svg8541"
   y="0px"
   x="0px"
   version="1.1"
   viewBox="0 0 61 42.5"
   width="2440"
   height="2040">
  <metadata
     id="metadata8547">
    <rdf:RDF>
      <cc:Work
         rdf:about="">
        <dc:format>image/svg+xml</dc:format>
        <dc:type
           rdf:resource="http://purl.org/dc/dcmitype/StillImage" />
        <dc:title></dc:title>
      </cc:Work>
    </rdf:RDF>
  </metadata>
  <defs
     id="defs8545" />
  <sodipodi:namedview
     fit-margin-bottom="0"
     fit-margin-right="0"
     fit-margin-left="0"
     fit-margin-top="0"
     inkscape:current-layer="g8537"
     inkscape:window-maximized="0"
     inkscape:window-y="23"
     inkscape:window-x="0"
     inkscape:cy="1050"
     inkscape:cx="1220"
     inkscape:zoom="0.30625"
     showgrid="false"
     id="namedview8543"
     inkscape:window-height="1005"
     inkscape:window-width="1680"
     inkscape:pageshadow="2"
     inkscape:pageopacity="0"
     guidetolerance="10"
     gridtolerance="10"
     objecttolerance="10"
     borderopacity="1"
     bordercolor="#666666"
     pagecolor="#ffffff" />
  <g
     transform="translate(0.5,-3.75)"
     id="g8539"
     fill-rule="evenodd"
     fill="none"
     stroke-width="1"
     stroke="none">
    <g
       id="g8537"
       fill="#000000"
       transform="translate(-945,-1101)">
      <path
         style="fill:#79b6e6;fill-opacity:1;stroke:#79b6e6;stroke-opacity:1"
         d="m 1003,1147 c 0,1.103 -0.897,2 -2,2 h -52 c -1.103,0 -2,-0.897 -2,-2 v -4 h 1 54 1 z m -52,-41 c 0,-0.553 0.447,-1 1,-1 h 46 c 0.553,0 1,0.447 1,1 v 32 c 0,0.553 -0.447,1 -1,1 h -23 -18 -5 c -0.553,0 -1,-0.447 -1,-1 z m 53,35 h -1 v -36 c 0,-2.206 -1.794,-4 -4,-4 h -48 c -2.206,0 -4,1.794 -4,4 v 36 h -1 c -0.553,0 -1,0.447 -1,1 v 5 c 0,2.206 1.794,4 4,4 h 52 c 2.206,0 4,-1.794 4,-4 v -5 c 0,-0.553 -0.447,-1 -1,-1 z"
         id="path8515" />
      <path
         style="fill:#dbb066;fill-opacity:1;stroke:#dbb066;stroke-opacity:1"
         d="m 962,1145 h -10 c -0.553,0 -1,0.447 -1,1 0,0.553 0.447,1 1,1 h 10 c 0.553,0 1,-0.447 1,-1 0,-0.553 -0.447,-1 -1,-1"
         id="path8517" />
      <path
         sodipodi:nodetypes="ccsssssc"
         style="fill:#dbb066;fill-opacity:1;stroke:#dbb066;stroke-opacity:1"
         d="M 998,1145 H 992.34694 988 c -0.553,0 -1,0.447 -1,1 0,0.553 0.447,1 1,1 h 10 c 0.553,0 1,-0.447 1,-1 0,-0.553 -0.447,-1 -1,-1"
         id="path8519" />
      <path
         style="fill:#dbb066;fill-opacity:1;stroke:#dbb066;stroke-opacity:1"
         d="m 976,1145 h -2 c -0.553,0 -1,0.447 -1,1 0,0.553 0.447,1 1,1 h 2 c 0.553,0 1,-0.447 1,-1 0,-0.553 -0.447,-1 -1,-1"
         id="path8521" />
      <polygon
         transform="translate(945,1101)"
         style="fill:#db7666;fill-opacity:1;stroke:#db7666;stroke-opacity:1"
         points="19.2172,28.1973 21.0002,31.7633 22.7832,28.1973 21.0002,26.4143 "
         id="polygon8523" />
      <path
         style="fill:#79b6e6;fill-opacity:1;stroke:#79b6e6;stroke-opacity:1"
         d="m 966,1122 c 2.757,0 5,-2.243 5,-5 0,-2.757 -2.243,-5 -5,-5 -2.757,0 -5,2.243 -5,5 0,2.757 2.243,5 5,5"
         id="path8525" />
      <polygon
         transform="translate(945,1101)"
         style="fill:#79b6e6;fill-opacity:1;stroke:#79b6e6;stroke-opacity:1"
         points="39,12 35,12 35,16 39,16 "
         id="polygon8527" />
      <path
         style="fill:#79b6e6;fill-opacity:1;stroke:#79b6e6;stroke-opacity:1"
         d="m 970.2471,1126.2207 c -0.664,0.253 -1.348,0.441 -2.042,0.571 l 1.502,1.501 c 0.305,0.305 0.38,0.77 0.187,1.155 l -3,6 c -0.169,0.338 -0.515,0.552 -0.894,0.552 -0.379,0 -0.725,-0.214 -0.895,-0.552 l -3,-6 c -0.192,-0.385 -0.117,-0.85 0.188,-1.155 l 1.501,-1.501 c -0.694,-0.13 -1.378,-0.318 -2.041,-0.571 -2.326,1.461 -3.753,4.017 -3.753,6.779 v 4 h 16 v -4 c 0,-2.762 -1.427,-5.318 -3.753,-6.779"
         id="path8529" />
      <polygon
         transform="translate(945,1101)"
         style="fill:#79b6e6;fill-opacity:1;stroke:#79b6e6;stroke-opacity:1"
         points="39,26 35,26 35,30 39,30 "
         id="polygon8531" />
      <path
         sodipodi:nodetypes="ssssssssssssssssccssssssssssssssssssssssssssssssssssssccccsccccccs"
         style="fill:#dbb066;fill-opacity:1;stroke:#dbb066;stroke-opacity:1"
         d="m 966,1110 c 3.859,0 7,3.141 7,7 0,3.859 -3.141,7 -7,7 -3.859,0 -7,-3.141 -7,-7 0,-3.859 3.141,-7 7,-7 z m 12,16 c 0,-0.553 0.447,-1 1,-1 h 6 c 0.553,0 1,0.447 1,1 v 6 c 0,0.553 -0.447,1 -1,1 h -6 c -0.553,0 -1,-0.447 -1,-1 z m 0,-14 c 0,-0.553 0.447,-1 1,-1 h 1.34694 0.32653 H 985 c 0.553,0 1,0.447 1,1 v 6 c 0,0.553 -0.447,1 -1,1 h -6 c -0.553,0 -1,-0.447 -1,-1 z m 11,18 h 3 c 0.553,0 1,0.447 1,1 0,0.553 -0.447,1 -1,1 h -3 c -0.553,0 -1,-0.447 -1,-1 0,-0.553 0.447,-1 1,-1 z m 0,-4 h 5 c 0.553,0 1,0.447 1,1 0,0.553 -0.447,1 -1,1 h -5 c -0.553,0 -1,-0.447 -1,-1 0,-0.553 0.447,-1 1,-1 z m 0,-10 h 3 c 0.553,0 1,0.447 1,1 0,0.553 -0.447,1 -1,1 h -3 c -0.553,0 -1,-0.447 -1,-1 0,-0.553 0.447,-1 1,-1 z m 0,-4 h 5 c 0.553,0 1,0.447 1,1 0,0.553 -0.447,1 -1,1 h -5 c -0.553,0 -1,-0.447 -1,-1 0,-0.553 0.447,-1 1,-1 z m -33,21 c 0,-3.646 1.988,-7.006 5.19,-8.767 0.27,-0.148 0.594,-0.163 0.876,-0.043 2.5,1.075 5.368,1.075 7.868,0 0.282,-0.12 0.606,-0.105 0.876,0.043 3.202,1.761 5.19,5.121 5.19,8.767 v 4 h 21 v -30 h -44 v 30 h 3 z"
         id="path8533" />
    </g>
  </g>
</svg>
