<svg height='100px' width='100px'  fill="#000000" xmlns="http://www.w3.org/2000/svg" viewBox="0 0 64 64" x="0px" y="0px"><g><rect x="20" y="29" width="5" height="8"></rect><rect x="29" y="23" width="5" height="14"></rect><rect x="38" y="27" width="5" height="10"></rect><rect x="47" y="21" width="5" height="16"></rect><path d="M60,3H55V5h2.586L48,14.586,39.707,6.293a1,1,0,0,0-1.414,0L27,17.586l-6.293-6.293a1,1,0,0,0-1.414,0l-14,14,1.414,1.414L20,13.414l6.293,6.293a1,1,0,0,0,1.414,0L39,8.414l8.293,8.293a1,1,0,0,0,1.414,0L59,6.414V9h2V4A1,1,0,0,0,60,3Z"></path><path d="M60.668,39.172a3.731,3.731,0,0,0-4.819-1.285l-5.468,2.8a4.009,4.009,0,0,1-1.631,4.988l-11.129,6.6a11.815,11.815,0,0,1-8.68,1.368L18.885,51.236l.465-1.945,10.036,2.4A9.845,9.845,0,0,0,36.6,50.554l11.128-6.6a2.012,2.012,0,0,0,.708-2.738,4.531,4.531,0,0,0-5.992-1.765l-8.071,4.142a3.938,3.938,0,0,1-3.646-.024l-5.5-2.921a11.79,11.79,0,0,0-11.747.415l3.136,14.949,1.67-.36a7.8,7.8,0,0,1,2.669-.106l12.491,1.37a9.71,9.71,0,0,0,6.7-1.566l19.973-13.4a2.019,2.019,0,0,0,.552-2.777Z"></path><path d="M3,39.487,7.514,61l7.759-1.67L10.758,37.817Zm3.927,4.26-.411-1.956,1.957-.411.411,1.955Z"></path></g></svg>