<svg height='100px' width='100px'  fill="#000000" xmlns="http://www.w3.org/2000/svg" data-name="Layer 1" viewBox="0 0 64 64" x="0px" y="0px"><title>media-computer-internet-economic-crisis</title><polygon points="56.858 9.329 55.401 7.933 52.549 10.811 54.005 12.207 56.858 9.329"></polygon><rect x="56.965" y="16.858" width="4.035" height="2"></rect><rect x="45.251" y="3" width="2.034" height="4.069"></rect><path d="M9.136,28.63V44.343l-1.49,1.465L5.489,43.687a1.028,1.028,0,0,0-1.077-.23,1,1,0,0,0-.657.87L3.036,54.934a.989.989,0,0,0,.3.773A1.021,1.021,0,0,0,4.051,56l.067,0,10.787-.707a1.016,1.016,0,0,0,.884-.646.987.987,0,0,0-.233-1.059L13.4,51.465,14.889,50h7.467v4.586l-5.8,5.707a.987.987,0,0,0-.22,1.09,1.016,1.016,0,0,0,.939.617H45.746a1.016,1.016,0,0,0,.939-.617.987.987,0,0,0-.22-1.09l-5.8-5.707V50h12.2a1.008,1.008,0,0,0,1.017-1V26.055l2.5-.63a1.01,1.01,0,0,0,.726-.7.991.991,0,0,0-.251-.969l-3.671-3.7c1.236-2.029.742-5.006-1.322-7.087a6.577,6.577,0,0,0-4.586-2.03,4.727,4.727,0,0,0-2.461.676L41.167,7.933a1.033,1.033,0,0,0-1-.267,1.011,1.011,0,0,0-.72.729L36.665,19.638l-.36.362h-7.43a13.751,13.751,0,0,0,.6-4A14.136,14.136,0,0,0,15.237,2,14.136,14.136,0,0,0,1,16,13.989,13.989,0,0,0,9.136,28.63ZM47.28,12.938a4.519,4.519,0,0,1,3.129,1.426,4.233,4.233,0,0,1,1.274,4.174L46.294,13.1A2.9,2.9,0,0,1,47.28,12.938ZM12.425,11.717A14.26,14.26,0,0,0,15.237,12a14.391,14.391,0,0,0,2.813-.282c.115,1.01.193,2.105.222,3.282H12.2C12.232,13.823,12.309,12.728,12.425,11.717ZM18.272,17c-.029,1.178-.107,2.273-.222,3.284a14.507,14.507,0,0,0-5.625,0c-.115-1.01-.193-2.106-.222-3.283ZM12.287,27.631A12.239,12.239,0,0,1,7.2,25.007a11.953,11.953,0,0,1,3.561-2.147A17.328,17.328,0,0,0,12.287,27.631Zm.425-5.368a12.379,12.379,0,0,1,5.05,0C17.1,25.912,15.964,28,15.237,28S13.374,25.912,12.712,22.263Zm7,.6a11.977,11.977,0,0,1,3.561,2.148,12.249,12.249,0,0,1-5.088,2.624A17.323,17.323,0,0,0,19.714,22.859Zm4.992.7a14.038,14.038,0,0,0-4.675-2.735c.152-1.235.244-2.522.275-3.821h7.083A11.827,11.827,0,0,1,24.706,23.556ZM20.306,15c-.031-1.3-.123-2.586-.275-3.821a14.049,14.049,0,0,0,4.675-2.735A11.827,11.827,0,0,1,27.389,15Zm-.592-5.86a17.327,17.327,0,0,0-1.527-4.771,12.249,12.249,0,0,1,5.088,2.624A11.966,11.966,0,0,1,19.714,9.14Zm-1.952.6a12.374,12.374,0,0,1-5.049,0C13.374,6.088,14.51,4,15.237,4S17.1,6.088,17.762,9.737Zm-7-.6A11.965,11.965,0,0,1,7.2,6.993a12.239,12.239,0,0,1,5.087-2.624A17.325,17.325,0,0,0,10.761,9.141Zm-.318,2.038C10.292,12.414,10.2,13.7,10.168,15H3.085A11.834,11.834,0,0,1,5.768,8.444,14.048,14.048,0,0,0,10.443,11.179ZM10.168,17c.031,1.3.123,2.586.275,3.821a14.049,14.049,0,0,0-4.675,2.735A11.834,11.834,0,0,1,3.085,17Zm1.074,35.172,1.291,1.269-7.39.485.492-7.267,1.292,1.27a1.03,1.03,0,0,0,1.438,0l7.911-7.779,2.876,2.829-7.91,7.779A.988.988,0,0,0,11.242,52.172Zm27.683,3.535L43.291,60H19.726l4.366-4.293a.988.988,0,0,0,.3-.707V50H38.627v5A.988.988,0,0,0,38.925,55.707ZM51.847,37.415a1.008,1.008,0,0,0-.38-.238l-4.05-1.362L42.573,30.93l2.675-2.7,6.6-1.664ZM37.572,33.108h0L36.16,34.532l-2.623-2.646-3.089-3.115,7.139-7.2L43.3,27.333l-4.3,4.341Zm-9.741-.258,1.91-1.926,2.233,2.251,2.053,2.07-1.946,1.963a1.31,1.31,0,0,1-1.826,0l-2.424-2.444A1.365,1.365,0,0,1,27.831,32.85Zm13.322-.488,4.978,5.021a1.019,1.019,0,0,0,.4.248l2.757.927L48.005,39.85l-3.441-1.158L39.72,33.807Zm-.16-21.741,3,3.023v0l1.972,1.988,8.212,8.283-9.139,2.3-6.328-6.383ZM34.322,22,28.3,28.073a.989.989,0,0,0,0,1.4l.021.021-1.945,1.962a3.353,3.353,0,0,0,0,4.707L28.8,38.6a3.337,3.337,0,0,0,4.74,0l1.912-1.929a1.021,1.021,0,0,0,1.438-.012L38.3,35.239l4.977,5.021a1.026,1.026,0,0,0,.4.248l4.279,1.438a1.029,1.029,0,0,0,1.057-.248l2.834-2.859V48H16.923l4.386-4.313a.989.989,0,0,0,0-1.415L17,38.029a1.06,1.06,0,0,0-1.438,0l-4.388,4.314V29.41A14.312,14.312,0,0,0,28.081,22Z"></path></svg>