<svg height='100px' width='100px'  fill="#000000" xmlns="http://www.w3.org/2000/svg" xmlns:xlink="http://www.w3.org/1999/xlink" viewBox="0 0 60 50" version="1.1" x="0px" y="0px"><title>68 -News- (Solid)</title><desc>Created with Sketch.</desc><g stroke="none" stroke-width="1" fill="none" fill-rule="evenodd"><g transform="translate(-945.000000, -1101.000000)" fill="#000000"><g transform="translate(945.000000, 1101.000000)"><path d="M58,46 C58,47.103 57.103,48 56,48 L4,48 C2.897,48 2,47.103 2,46 L2,42 L3,42 L57,42 L58,42 L58,46 Z M6,5 C6,4.447 6.447,4 7,4 L53,4 C53.553,4 54,4.447 54,5 L54,37 C54,37.553 53.553,38 53,38 L30,38 L12,38 L7,38 C6.447,38 6,37.553 6,37 L6,5 Z M59,40 L58,40 L58,4 C58,1.794 56.206,0 54,0 L6,0 C3.794,0 2,1.794 2,4 L2,40 L1,40 C0.447,40 0,40.447 0,41 L0,46 C0,48.206 1.794,50 4,50 L56,50 C58.206,50 60,48.206 60,46 L60,41 C60,40.447 59.553,40 59,40 L59,40 Z"></path><path d="M17,44 L7,44 C6.447,44 6,44.447 6,45 C6,45.553 6.447,46 7,46 L17,46 C17.553,46 18,45.553 18,45 C18,44.447 17.553,44 17,44"></path><path d="M53,44 L43,44 C42.447,44 42,44.447 42,45 C42,45.553 42.447,46 43,46 L53,46 C53.553,46 54,45.553 54,45 C54,44.447 53.553,44 53,44"></path><path d="M31,44 L29,44 C28.447,44 28,44.447 28,45 C28,45.553 28.447,46 29,46 L31,46 C31.553,46 32,45.553 32,45 C32,44.447 31.553,44 31,44"></path><polygon points="22.7832 28.1973 21.0002 26.4143 19.2172 28.1973 21.0002 31.7633"></polygon><path d="M21,21 C23.757,21 26,18.757 26,16 C26,13.243 23.757,11 21,11 C18.243,11 16,13.243 16,16 C16,18.757 18.243,21 21,21"></path><polygon points="35 16 39 16 39 12 35 12"></polygon><path d="M25.2471,25.2207 C24.5831,25.4737 23.8991,25.6617 23.2051,25.7917 L24.7071,27.2927 C25.0121,27.5977 25.0871,28.0627 24.8941,28.4477 L21.8941,34.4477 C21.7251,34.7857 21.3791,34.9997 21.0001,34.9997 C20.6211,34.9997 20.2751,34.7857 20.1051,34.4477 L17.1051,28.4477 C16.9131,28.0627 16.9881,27.5977 17.2931,27.2927 L18.7941,25.7917 C18.1001,25.6617 17.4161,25.4737 16.7531,25.2207 C14.4271,26.6817 13.0001,29.2377 13.0001,31.9997 L13.0001,35.9997 L29.0001,35.9997 L29.0001,31.9997 C29.0001,29.2377 27.5731,26.6817 25.2471,25.2207"></path><polygon points="35 30 39 30 39 26 35 26"></polygon><path d="M21,9 C24.859,9 28,12.141 28,16 C28,19.859 24.859,23 21,23 C17.141,23 14,19.859 14,16 C14,12.141 17.141,9 21,9 L21,9 Z M33,25 C33,24.447 33.447,24 34,24 L40,24 C40.553,24 41,24.447 41,25 L41,31 C41,31.553 40.553,32 40,32 L34,32 C33.447,32 33,31.553 33,31 L33,25 Z M33,11 C33,10.447 33.447,10 34,10 L40,10 C40.553,10 41,10.447 41,11 L41,17 C41,17.553 40.553,18 40,18 L34,18 C33.447,18 33,17.553 33,17 L33,11 Z M44,29 L47,29 C47.553,29 48,29.447 48,30 C48,30.553 47.553,31 47,31 L44,31 C43.447,31 43,30.553 43,30 C43,29.447 43.447,29 44,29 L44,29 Z M44,25 L49,25 C49.553,25 50,25.447 50,26 C50,26.553 49.553,27 49,27 L44,27 C43.447,27 43,26.553 43,26 C43,25.447 43.447,25 44,25 L44,25 Z M44,15 L47,15 C47.553,15 48,15.447 48,16 C48,16.553 47.553,17 47,17 L44,17 C43.447,17 43,16.553 43,16 C43,15.447 43.447,15 44,15 L44,15 Z M44,11 L49,11 C49.553,11 50,11.447 50,12 C50,12.553 49.553,13 49,13 L44,13 C43.447,13 43,12.553 43,12 C43,11.447 43.447,11 44,11 L44,11 Z M11,32 C11,28.354 12.988,24.994 16.19,23.233 C16.46,23.085 16.784,23.07 17.066,23.19 C19.566,24.265 22.434,24.265 24.934,23.19 C25.216,23.07 25.54,23.085 25.81,23.233 C29.012,24.994 31,28.354 31,32 L31,36 L52,36 L52,6 L8,6 L8,36 L11,36 L11,32 Z"></path></g></g></g></svg>