<?xml version="1.0" encoding="UTF-8" standalone="no"?>
<svg
   xmlns:dc="http://purl.org/dc/elements/1.1/"
   xmlns:cc="http://creativecommons.org/ns#"
   xmlns:rdf="http://www.w3.org/1999/02/22-rdf-syntax-ns#"
   xmlns:svg="http://www.w3.org/2000/svg"
   xmlns="http://www.w3.org/2000/svg"
   xmlns:sodipodi="http://sodipodi.sourceforge.net/DTD/sodipodi-0.dtd"
   xmlns:inkscape="http://www.inkscape.org/namespaces/inkscape"
   inkscape:version="1.0 (4035a4f, 2020-05-01)"
   sodipodi:docname="catalysts-one-logo.svg"
   viewBox="0 0 485.06332 413.31354"
   height="413.31354"
   width="485.06332"
   xml:space="preserve"
   id="svg10"
   version="1.1"><metadata
     id="metadata16"><rdf:RDF><cc:Work
         rdf:about=""><dc:format>image/svg+xml</dc:format><dc:type
           rdf:resource="http://purl.org/dc/dcmitype/StillImage" /><dc:title></dc:title></cc:Work></rdf:RDF></metadata><defs
     id="defs14"><clipPath
       id="clipPath26"
       clipPathUnits="userSpaceOnUse"><path
         id="path24"
         d="M 0,360 H 360 V 0 H 0 Z" /></clipPath></defs><sodipodi:namedview
     fit-margin-bottom="15"
     fit-margin-right="15"
     fit-margin-left="15"
     fit-margin-top="15"
     inkscape:current-layer="g20"
     inkscape:window-maximized="0"
     inkscape:window-y="912"
     inkscape:window-x="0"
     inkscape:cy="206.65677"
     inkscape:cx="242.53166"
     inkscape:zoom="1.6729656"
     showgrid="false"
     id="namedview12"
     inkscape:window-height="866"
     inkscape:window-width="1600"
     inkscape:pageshadow="2"
     inkscape:pageopacity="0"
     guidetolerance="10"
     gridtolerance="10"
     objecttolerance="10"
     borderopacity="1"
     bordercolor="#ffffff"
     pagecolor="#ffffff" /><g
     transform="matrix(1.3333333,0,0,-1.3333333,3.4920003,445.8569)"
     inkscape:label="Blue Logo"
     inkscape:groupmode="layer"
     id="g18"><g
       id="g20"><g
         id="g28"
         transform="translate(207.915,317.583)"><path
           d="m 0,0 c -17.215,-4.926 -33.692,-13.124 -48.449,-24.603 1.111,-9.573 3.375,-18.794 6.65,-27.523 C -18.592,-45.645 -1.322,-24.945 0,0"
           style="fill:#ffffff;fill-opacity:1;fill-rule:nonzero;stroke:none"
           id="path30" /></g><g
         id="g32"
         transform="translate(246.0811,292.9663)"><path
           d="m 0,0 c -5.291,7.375 -8.412,16.411 -8.412,26.182 0,1.235 0.063,2.455 0.161,3.666 -10.091,-0.682 -20.121,-2.43 -29.915,-5.231 -1.322,-24.946 -18.592,-45.645 -41.799,-52.126 2.051,-5.466 4.498,-10.738 7.306,-15.781 7.26,3.409 15.361,5.324 23.913,5.324 6.488,0 12.715,-1.111 18.516,-3.129 0.509,0.223 1.019,0.446 1.535,0.659 0.554,0.229 1.115,0.444 1.675,0.661 0.664,0.256 1.327,0.511 1.998,0.75 0.495,0.176 0.997,0.34 1.497,0.506 0.704,0.235 1.409,0.465 2.121,0.681 C -19.707,-22.436 -11.689,-8.943 0,0"
           style="fill:#ffffff;fill-opacity:1;fill-rule:nonzero;stroke:none"
           id="path34" /></g><g
         id="g36"
         transform="translate(246.0811,292.9663)"><path
           d="m 0,0 c 7.921,6.059 17.52,10.034 27.984,11.085 2.567,5.203 5.663,10.097 9.233,14.603 C 22.343,29.487 6.98,30.877 -8.251,29.848 -8.349,28.637 -8.412,27.417 -8.412,26.182 -8.412,16.411 -5.291,7.375 0,0"
           style="fill:#ffffff;fill-opacity:1;fill-rule:nonzero;stroke:none"
           id="path38" /></g><g
         id="g40"
         transform="translate(333.0615,263.5225)"><path
           d="m 0,0 16.867,16.811 c -0.176,0.179 -0.346,0.36 -0.522,0.537 C 8.483,25.236 -0.066,32.02 -9.112,37.701 -10.903,33.583 -13.296,29.789 -16.172,26.42 -8.492,19.435 -2.799,10.313 0,0"
           style="fill:#ffffff;fill-opacity:1;fill-rule:nonzero;stroke:none"
           id="path42" /></g><g
         id="g44"
         transform="translate(279.665,304.333)"><path
           d="m 0,0 c 14.334,0 27.396,-5.45 37.225,-14.391 2.876,3.369 5.268,7.163 7.059,11.282 C 31.539,4.896 17.808,10.7 3.633,14.321 0.063,9.815 -3.033,4.921 -5.6,-0.281 -3.758,-0.096 -1.891,0 0,0"
           style="fill:#ffffff;fill-opacity:1;fill-rule:nonzero;stroke:none"
           id="path46" /></g><g
         id="g48"
         transform="translate(197.335,255)"><path
           d="m 0,0 c -8.552,0 -16.653,-1.915 -23.913,-5.324 3.866,-6.944 8.413,-13.456 13.558,-19.442 0.359,0.427 0.728,0.845 1.095,1.264 0.303,0.346 0.592,0.701 0.903,1.043 0.886,0.977 1.798,1.932 2.732,2.863 0.01,0.011 0.02,0.021 0.029,0.032 0.156,0.154 0.319,0.296 0.475,0.449 0.766,0.751 1.54,1.494 2.336,2.214 0.418,0.378 0.849,0.734 1.273,1.102 0.549,0.476 1.092,0.956 1.655,1.416 0.55,0.452 1.113,0.88 1.673,1.315 0.45,0.35 0.895,0.705 1.354,1.045 0.631,0.468 1.272,0.914 1.914,1.361 0.408,0.284 0.812,0.574 1.225,0.851 0.672,0.45 1.354,0.878 2.037,1.306 0.407,0.255 0.811,0.514 1.223,0.761 0.679,0.408 1.369,0.797 2.06,1.184 0.439,0.247 0.877,0.497 1.322,0.735 0.657,0.352 1.324,0.687 1.992,1.02 0.502,0.251 1.002,0.503 1.509,0.743 0.612,0.29 1.232,0.563 1.853,0.837 0.07,0.032 0.139,0.065 0.211,0.096 C 12.715,-1.11 6.488,0 0,0"
           style="fill:#ffffff;fill-opacity:1;fill-rule:nonzero;stroke:none"
           id="path50" /></g><g
         id="g52"
         transform="translate(226.1357,255.5464)"><path
           d="M 0,0 C 0.795,0.224 1.592,0.443 2.396,0.642 2.825,0.748 3.258,0.841 3.689,0.94 4.51,1.129 5.332,1.314 6.162,1.477 6.609,1.564 7.061,1.638 7.51,1.718 c 0.81,0.144 1.619,0.288 2.437,0.407 0.512,0.075 1.03,0.131 1.545,0.196 0.753,0.095 1.504,0.194 2.264,0.268 0.651,0.063 1.309,0.102 1.966,0.149 0.628,0.045 1.251,0.102 1.882,0.132 0.945,0.045 1.898,0.06 2.851,0.072 0.333,0.004 0.662,0.025 0.996,0.025 0.022,0 0.044,-10e-4 0.067,-10e-4 1.311,-0.002 2.616,-0.035 3.913,-0.099 0.595,-0.03 1.182,-0.088 1.775,-0.131 0.692,-0.049 1.389,-0.09 2.076,-0.157 0.815,-0.08 1.619,-0.191 2.427,-0.296 0.462,-0.059 0.928,-0.108 1.388,-0.176 0.869,-0.128 1.729,-0.285 2.589,-0.441 0.4,-0.074 0.804,-0.137 1.202,-0.215 0.865,-0.171 1.72,-0.369 2.575,-0.568 0.308,-0.072 0.618,-0.129 0.926,-0.204 -0.557,3.846 -0.858,7.775 -0.858,11.775 0,3.136 0.195,6.225 0.539,9.269 -8.133,3.2 -15.105,8.701 -20.125,15.697 C 8.256,28.477 0.238,14.984 -1.459,-0.418 c 0.035,0.01 0.07,0.022 0.105,0.033 C -0.905,-0.25 -0.451,-0.127 0,0"
           style="fill:#ffffff;fill-opacity:1;fill-rule:nonzero;stroke:none"
           id="path54" /></g><g
         id="g56"
         transform="translate(246.0811,292.9663)"><path
           d="m 0,0 c 5.02,-6.996 11.991,-12.497 20.125,-15.697 1.076,9.523 3.797,18.543 7.859,26.782 C 17.52,10.034 7.921,6.059 0,0"
           style="fill:#ffffff;fill-opacity:1;fill-rule:nonzero;stroke:none"
           id="path58" /></g><g
         id="g60"
         transform="translate(316.8896,289.9424)"><path
           d="m 0,0 c -8.252,-9.663 -20.518,-15.794 -34.221,-15.794 -5.813,0 -11.363,1.114 -16.463,3.121 -0.344,-3.044 -0.539,-6.133 -0.539,-9.269 0,-4 0.301,-7.929 0.858,-11.775 0.09,-0.022 0.179,-0.05 0.269,-0.072 0.823,-0.205 1.635,-0.434 2.447,-0.665 0.434,-0.123 0.874,-0.239 1.305,-0.37 0.748,-0.227 1.488,-0.474 2.227,-0.723 0.498,-0.167 1,-0.328 1.494,-0.505 0.656,-0.235 1.304,-0.489 1.952,-0.74 0.573,-0.223 1.149,-0.441 1.715,-0.677 0.558,-0.232 1.107,-0.48 1.659,-0.724 0.648,-0.287 1.297,-0.571 1.935,-0.874 0.464,-0.221 0.92,-0.456 1.379,-0.685 0.71,-0.355 1.419,-0.709 2.116,-1.084 0.387,-0.208 0.766,-0.429 1.15,-0.644 0.749,-0.419 1.497,-0.84 2.231,-1.283 0.338,-0.204 0.668,-0.419 1.002,-0.628 0.757,-0.473 1.515,-0.949 2.256,-1.447 0.326,-0.219 0.642,-0.451 0.964,-0.674 0.731,-0.508 1.461,-1.015 2.174,-1.546 0.363,-0.271 0.715,-0.557 1.072,-0.834 0.657,-0.506 1.315,-1.009 1.955,-1.535 0.518,-0.427 1.016,-0.874 1.524,-1.313 0.466,-0.404 0.941,-0.797 1.397,-1.211 0.966,-0.876 1.91,-1.777 2.829,-2.699 0.016,-0.016 0.034,-0.031 0.049,-0.046 0.178,-0.179 0.341,-0.365 0.517,-0.546 L 16.172,-26.42 C 13.373,-16.106 7.68,-6.985 0,0"
           style="fill:#ffffff;fill-opacity:1;fill-rule:nonzero;stroke:none"
           id="path62" /></g><g
         id="g64"
         transform="translate(316.8896,289.9424)"><path
           d="m 0,0 c -9.829,8.94 -22.891,14.391 -37.225,14.391 -1.89,0 -3.757,-0.097 -5.599,-0.282 -4.063,-8.239 -6.783,-17.259 -7.86,-26.782 5.1,-2.007 10.65,-3.121 16.463,-3.121 13.703,0 25.969,6.131 34.221,15.794"
           style="fill:#ffffff;fill-opacity:1;fill-rule:nonzero;stroke:none"
           id="path66" /></g><g
         id="g68"
         transform="translate(287.665,76)"><path
           d="m 0,0 c -0.791,0 -1.576,0.031 -2.361,0.061 1.964,-6.567 3.031,-13.52 3.031,-20.726 0,-4.866 -0.488,-9.618 -1.404,-14.215 22.736,6.446 44.199,18.591 62.126,36.456 L 44.793,18.175 C 33.209,6.934 17.418,0 0,0"
           style="fill:#ffffff;fill-opacity:1;fill-rule:nonzero;stroke:none"
           id="path70" /></g><g
         id="g72"
         transform="translate(251.3154,77.8232)"><path
           d="m 0,0 c -4.215,1.71 -8.818,2.659 -13.646,2.659 -20.066,0 -36.333,-16.267 -36.333,-36.334 0,-0.298 0.014,-0.592 0.022,-0.888 16.508,-5.59 33.828,-8.098 51.067,-7.522 -2.216,7.304 -3.42,15.048 -3.42,23.076 0,6.555 0.811,12.917 2.31,19.009"
           style="fill:#ffffff;fill-opacity:1;fill-rule:nonzero;stroke:none"
           id="path74" /></g><g
         id="g76"
         transform="translate(285.3037,76.0605)"><path
           d="m 0,0 c -11.572,0.418 -22.361,3.887 -31.592,9.635 -0.925,-2.568 -1.737,-5.19 -2.396,-7.872 13.302,-5.396 22.688,-18.436 22.688,-33.675 0,-2.099 -0.188,-4.152 -0.529,-6.154 4.522,0.824 9.013,1.866 13.456,3.126 0.916,4.596 1.404,9.348 1.404,14.214 C 3.031,-13.52 1.964,-6.566 0,0"
           style="fill:#ffffff;fill-opacity:1;fill-rule:nonzero;stroke:none"
           id="path78" /></g><g
         id="g80"
         transform="translate(251.3154,77.8232)"><path
           d="m 0,0 c -1.499,-6.092 -2.31,-12.454 -2.31,-19.009 0,-8.028 1.204,-15.772 3.42,-23.076 7.052,0.236 14.087,0.988 21.049,2.256 0.341,2.002 0.529,4.056 0.529,6.154 C 22.688,-18.436 13.303,-5.396 0,0"
           style="fill:#ffffff;fill-opacity:1;fill-rule:nonzero;stroke:none"
           id="path82" /></g><g
         id="g84"
         transform="translate(302.5771,122.5488)"><path
           d="M 0,0 C -0.452,-0.438 -0.909,-0.869 -1.371,-1.295 -1.932,-1.813 -2.497,-2.319 -3.068,-2.818 -3.538,-3.228 -4.012,-3.633 -4.491,-4.031 -4.936,-4.402 -5.382,-4.77 -5.832,-5.127 -6.49,-5.65 -7.154,-6.162 -7.828,-6.664 -8.316,-7.027 -8.811,-7.38 -9.305,-7.73 -9.7,-8.012 -10.1,-8.285 -10.501,-8.56 c -0.758,-0.516 -1.521,-1.018 -2.292,-1.504 -0.432,-0.274 -0.864,-0.544 -1.301,-0.809 -0.485,-0.293 -0.97,-0.586 -1.461,-0.869 -0.763,-0.441 -1.537,-0.867 -2.318,-1.283 -0.426,-0.228 -0.856,-0.447 -1.286,-0.665 -0.685,-0.349 -1.374,-0.688 -2.07,-1.017 -0.367,-0.173 -0.733,-0.347 -1.101,-0.514 -0.866,-0.392 -1.742,-0.767 -2.624,-1.131 -0.272,-0.111 -0.542,-0.222 -0.815,-0.332 -1.036,-0.412 -2.083,-0.804 -3.139,-1.174 -0.113,-0.039 -0.226,-0.076 -0.338,-0.115 -1.111,-0.381 -2.233,-0.742 -3.365,-1.075 -0.004,-0.001 -0.009,-0.003 -0.013,-0.004 6.976,-7.809 12.273,-17.143 15.351,-27.436 0.785,-0.03 1.57,-0.061 2.361,-0.061 17.418,0 33.209,6.934 44.793,18.175 L 0.774,0.732 C 0.521,0.48 0.256,0.248 0,0"
           style="fill:#ffffff;fill-opacity:1;fill-rule:nonzero;stroke:none"
           id="path86" /></g><g
         id="g88"
         transform="translate(253.7119,85.6953)"><path
           d="M 0,0 C 2.016,5.586 4.625,10.888 7.778,15.814 6.912,15.66 6.041,15.521 5.165,15.396 5.077,15.383 4.989,15.371 4.9,15.359 3.731,15.195 2.555,15.059 1.369,14.947 0.184,14.836 -1.005,14.751 -2.193,14.691 -2.398,14.682 -2.604,14.672 -2.81,14.663 c -1.1,-0.046 -2.204,-0.077 -3.315,-0.077 -0.039,0 -0.078,0.004 -0.118,0.004 -1.279,0.002 -2.552,0.034 -3.818,0.096 -0.771,0.038 -1.533,0.108 -2.298,0.168 -0.534,0.042 -1.069,0.07 -1.599,0.122 -0.897,0.087 -1.784,0.208 -2.673,0.326 -0.112,0.014 -0.224,0.029 -0.338,0.043 C -12.278,9.275 -6.533,4.068 0,0"
           style="fill:#ffffff;fill-opacity:1;fill-rule:nonzero;stroke:none"
           id="path90" /></g><g
         id="g92"
         transform="translate(269.8877,103.4766)"><path
           d="m 0,0 c -1.188,-0.349 -2.389,-0.667 -3.6,-0.961 -0.051,-0.013 -0.103,-0.024 -0.155,-0.037 -1.53,-0.367 -3.078,-0.691 -4.642,-0.969 -3.154,-4.927 -5.763,-10.228 -7.779,-15.814 9.231,-5.748 20.02,-9.217 31.592,-9.635 C 12.339,-17.123 7.041,-7.789 0.065,0.021 0.043,0.014 0.021,0.007 0,0"
           style="fill:#ffffff;fill-opacity:1;fill-rule:nonzero;stroke:none"
           id="path94" /></g><g
         id="g96"
         transform="translate(166.1162,265.457)"><path
           d="m 0,0 c -3.275,8.729 -5.539,17.95 -6.65,27.523 -4.629,-3.6 -9.092,-7.518 -13.353,-11.764 -4.8,-4.784 -9.182,-9.828 -13.165,-15.078 5.582,-1.813 11.532,-2.804 17.717,-2.804 5.355,0 10.533,0.75 15.451,2.123"
           style="fill:#ffffff;fill-opacity:1;fill-rule:nonzero;stroke:none"
           id="path98" /></g><g
         id="g100"
         transform="translate(191.6455,123.4531)"><path
           d="M 0,0 C -0.011,0.01 -0.021,0.021 -0.03,0.031 -0.053,0.053 -0.076,0.073 -0.098,0.096 -0.43,0.428 -0.737,0.775 -1.062,1.113 -1.621,1.694 -2.185,2.271 -2.727,2.869 -3.197,3.39 -3.644,3.924 -4.099,4.454 -4.482,4.9 -4.873,5.34 -5.246,5.795 c -0.512,0.623 -0.999,1.26 -1.488,1.894 -0.291,0.377 -0.59,0.75 -0.875,1.133 -0.512,0.688 -0.998,1.388 -1.485,2.088 -0.243,0.351 -0.492,0.696 -0.729,1.051 -0.484,0.721 -0.945,1.451 -1.402,2.185 -0.222,0.358 -0.451,0.713 -0.67,1.076 -0.433,0.722 -0.847,1.454 -1.257,2.187 -0.223,0.399 -0.449,0.794 -0.664,1.197 -0.373,0.697 -0.728,1.4 -1.079,2.105 -0.231,0.465 -0.465,0.928 -0.688,1.398 -0.181,0.383 -0.361,0.766 -0.536,1.151 -12.054,5.066 -21.965,14.206 -28.03,25.693 -1.949,-1.879 -3.726,-3.93 -5.331,-6.117 6.555,-6.03 10.666,-14.678 10.666,-24.288 0,-11.046 -5.433,-20.819 -13.767,-26.808 4.229,-7.519 10.434,-13.777 17.935,-18.037 C -26.138,-14.316 -14.084,-5.035 0,0"
           style="fill:#ffffff;fill-opacity:1;fill-rule:nonzero;stroke:none"
           id="path102" /></g><g
         id="g104"
         transform="translate(215.7656,106.9629)"><path
           d="m 0,0 c -0.065,0.029 -0.13,0.059 -0.194,0.088 -0.647,0.286 -1.295,0.57 -1.936,0.875 -0.459,0.219 -0.909,0.45 -1.363,0.678 -0.715,0.355 -1.428,0.713 -2.133,1.091 -0.377,0.204 -0.745,0.418 -1.117,0.626 -0.76,0.425 -1.518,0.852 -2.266,1.303 -0.32,0.193 -0.632,0.398 -0.949,0.596 -0.775,0.483 -1.549,0.969 -2.311,1.481 -0.297,0.2 -0.585,0.412 -0.88,0.616 -0.758,0.525 -1.516,1.052 -2.26,1.607 -0.317,0.236 -0.621,0.486 -0.934,0.727 -0.702,0.539 -1.404,1.076 -2.092,1.642 -0.415,0.343 -0.814,0.703 -1.222,1.055 -0.569,0.488 -1.143,0.966 -1.701,1.472 -0.942,0.856 -1.864,1.734 -2.762,2.633 -14.084,-5.035 -26.138,-14.316 -34.647,-26.297 6.889,-3.912 14.846,-6.156 23.334,-6.156 14.105,0 26.761,6.176 35.433,15.963"
           style="fill:#ffffff;fill-opacity:1;fill-rule:nonzero;stroke:none"
           id="path106" /></g><g
         id="g108"
         transform="translate(168.7188,185.3789)"><path
           d="M 0,0 C 0.046,0.612 0.079,1.224 0.14,1.835 0.224,2.698 0.341,3.552 0.452,4.407 0.507,4.82 0.549,5.234 0.61,5.646 0.744,6.558 0.908,7.46 1.073,8.362 c 0.066,0.357 0.121,0.714 0.192,1.07 0.178,0.906 0.384,1.802 0.594,2.697 0.083,0.357 0.159,0.715 0.247,1.07 0.214,0.862 0.454,1.712 0.696,2.562 0.113,0.396 0.219,0.793 0.338,1.188 0.238,0.787 0.498,1.564 0.759,2.341 0.155,0.459 0.303,0.919 0.465,1.377 0.25,0.695 0.518,1.381 0.785,2.067 0.207,0.535 0.411,1.07 0.631,1.6 0.248,0.598 0.513,1.186 0.776,1.776 0.268,0.607 0.535,1.215 0.82,1.817 0.24,0.506 0.496,1.003 0.746,1.503 0.334,0.667 0.667,1.334 1.022,1.993 0.232,0.431 0.477,0.854 0.716,1.281 0.396,0.704 0.79,1.407 1.209,2.101 0.233,0.386 0.479,0.763 0.718,1.145 0.444,0.709 0.888,1.419 1.357,2.116 0.255,0.381 0.525,0.75 0.787,1.125 0.47,0.676 0.939,1.353 1.433,2.017 0.324,0.434 0.664,0.853 0.995,1.279 0.454,0.585 0.901,1.174 1.374,1.748 0.172,0.21 0.354,0.412 0.528,0.62 -5.145,5.986 -9.692,12.498 -13.558,19.442 -5.238,-2.46 -10.032,-5.706 -14.238,-9.58 6.846,-5.64 11.21,-14.182 11.21,-23.745 0,-16.014 -12.241,-29.163 -27.878,-30.612 1.106,-4.695 2.783,-9.171 4.98,-13.333 5.817,5.607 13.057,9.744 21.134,11.799 C -0.065,-0.781 -0.029,-0.391 0,0"
           style="fill:#ffffff;fill-opacity:1;fill-rule:nonzero;stroke:none"
           id="path110" /></g><g
         id="g112"
         transform="translate(175.5264,146.7129)"><path
           d="m 0,0 c -0.121,0.266 -0.229,0.535 -0.347,0.803 -0.241,0.548 -0.483,1.094 -0.714,1.648 -0.241,0.586 -0.467,1.175 -0.695,1.765 -0.245,0.636 -0.488,1.27 -0.719,1.914 -0.185,0.522 -0.357,1.048 -0.531,1.573 -0.238,0.715 -0.473,1.431 -0.691,2.154 -0.142,0.472 -0.271,0.946 -0.403,1.419 -0.218,0.777 -0.432,1.553 -0.627,2.339 -0.11,0.446 -0.207,0.893 -0.309,1.34 -0.185,0.808 -0.368,1.616 -0.528,2.434 -0.089,0.456 -0.164,0.914 -0.245,1.373 -0.142,0.801 -0.286,1.603 -0.404,2.414 -0.076,0.518 -0.133,1.039 -0.197,1.557 -0.095,0.75 -0.194,1.499 -0.268,2.255 -0.062,0.65 -0.1,1.299 -0.147,1.95 -0.046,0.634 -0.103,1.265 -0.134,1.904 -0.044,0.916 -0.057,1.833 -0.068,2.75 -0.006,0.365 -0.029,0.726 -0.029,1.093 0,0.024 0.002,0.048 0.002,0.073 0.001,1.299 0.034,2.597 0.099,3.894 0.014,0.282 0.041,0.559 0.059,0.84 C -14.974,35.438 -22.214,31.3 -28.03,25.693 -21.965,14.206 -12.054,5.066 0,0"
           style="fill:#ffffff;fill-opacity:1;fill-rule:nonzero;stroke:none"
           id="path114" /></g><g
         id="g116"
         transform="translate(236.7432,101.04)"><path
           d="m 0,0 c -0.269,0.032 -0.538,0.063 -0.805,0.103 -0.924,0.136 -1.837,0.302 -2.75,0.47 -0.345,0.064 -0.694,0.117 -1.041,0.186 -0.903,0.179 -1.797,0.385 -2.689,0.595 -0.361,0.084 -0.723,0.159 -1.081,0.249 -0.847,0.21 -1.683,0.447 -2.519,0.685 -0.412,0.117 -0.826,0.227 -1.236,0.352 -0.764,0.23 -1.517,0.483 -2.27,0.737 -0.484,0.162 -0.969,0.318 -1.451,0.49 -0.664,0.238 -1.319,0.495 -1.974,0.75 -0.567,0.22 -1.134,0.436 -1.696,0.669 -0.493,0.205 -0.978,0.422 -1.466,0.637 -8.671,-9.787 -21.328,-15.963 -35.432,-15.963 -8.488,0 -16.445,2.244 -23.334,6.156 -4.363,-6.144 -7.807,-12.988 -10.092,-20.347 15.93,-15.641 34.6,-26.824 54.451,-33.548 -0.008,0.296 -0.022,0.59 -0.022,0.887 0,20.067 16.267,36.334 36.334,36.334 4.827,0 9.43,-0.949 13.645,-2.659 0.659,2.683 1.472,5.305 2.397,7.872 C 10.436,-11.276 4.69,-6.069 0,0"
           style="fill:#ffffff;fill-opacity:1;fill-rule:nonzero;stroke:none"
           id="path118" /></g><g
         id="g120"
         transform="translate(159.1836,240.0957)"><path
           d="m 0,0 c -5.313,4.376 -12.119,7.005 -19.54,7.005 -0.639,0 -1.271,-0.026 -1.899,-0.064 1.432,-2.756 2.254,-5.882 2.254,-9.203 0,-11.046 -8.953,-20 -20,-20 -3.963,0 -7.648,1.168 -10.756,3.157 -0.229,-1.513 -0.349,-3.062 -0.349,-4.64 0,-16.983 13.768,-30.75 30.75,-30.75 0.969,0 1.926,0.051 2.872,0.139 -0.978,4.152 -1.516,8.475 -1.516,12.927 0,16.391 7.008,31.137 18.184,41.429"
           style="fill:#ffffff;fill-opacity:1;fill-rule:nonzero;stroke:none"
           id="path122" /></g><g
         id="g124"
         transform="translate(170.3936,216.3511)"><path
           d="m 0,0 c 0,9.563 -4.364,18.105 -11.21,23.745 -11.176,-10.292 -18.184,-25.038 -18.184,-41.429 0,-4.452 0.538,-8.775 1.516,-12.928 C -12.241,-29.163 0,-16.015 0,0"
           style="fill:#ffffff;fill-opacity:1;fill-rule:nonzero;stroke:none"
           id="path126" /></g><g
         id="g128"
         transform="translate(137.7441,247.0371)"><path
           d="m 0,0 c -3.332,6.41 -10.021,10.796 -17.745,10.796 -11.045,0 -20,-8.954 -20,-20 0,-7.081 3.69,-13.288 9.243,-16.842 C -26.357,-11.877 -14.544,-0.887 0,0"
           style="fill:#ffffff;fill-opacity:1;fill-rule:nonzero;stroke:none"
           id="path130" /></g><g
         id="g132"
         transform="translate(139.999,237.8335)"><path
           d="M 0,0 C 0,3.321 -0.822,6.447 -2.255,9.204 -16.799,8.316 -28.612,-2.674 -30.757,-16.843 -27.648,-18.832 -23.964,-20 -20,-20 -8.953,-20 0,-11.045 0,0"
           style="fill:#ffffff;fill-opacity:1;fill-rule:nonzero;stroke:none"
           id="path134" /></g><g
         id="g136"
         transform="translate(53.417,194.667)"><path
           d="m 0,0 c 0,1.253 0.095,2.485 0.271,3.689 -9.955,-1.147 -17.688,-9.593 -17.688,-19.856 0,-11.045 8.954,-20 20,-20 7.943,0 14.785,4.643 18.013,11.353 C 8.875,-22.63 0,-12.354 0,0"
           style="fill:#ffffff;fill-opacity:1;fill-rule:nonzero;stroke:none"
           id="path138" /></g><g
         id="g140"
         transform="translate(76,178.5)"><path
           d="m 0,0 c 0,-3.102 -0.727,-6.027 -1.987,-8.647 1.508,-0.283 3.063,-0.436 4.654,-0.436 13.945,0 25.25,11.305 25.25,25.25 0,8.434 -4.14,15.897 -10.492,20.482 C 15.829,32.054 11.473,28.75 6.333,28.75 -0.021,28.75 -5.181,33.794 -5.396,40.094 -14.26,37.108 -20.923,29.341 -22.312,19.856 -21.552,19.944 -20.783,20 -20,20 -8.954,20 0,11.046 0,0"
           style="fill:#ffffff;fill-opacity:1;fill-rule:nonzero;stroke:none"
           id="path142" /></g><g
         id="g144"
         transform="translate(74.0127,169.8525)"><path
           d="m 0,0 c 1.261,2.62 1.987,5.546 1.987,8.647 0,11.047 -8.954,20.001 -20,20.001 -0.783,0 -1.551,-0.057 -2.311,-0.144 -0.177,-1.205 -0.272,-2.436 -0.272,-3.69 C -20.596,12.46 -11.721,2.185 0,0"
           style="fill:#ffffff;fill-opacity:1;fill-rule:nonzero;stroke:none"
           id="path146" /></g><g
         id="g148"
         transform="translate(142.165,166.2891)"><path
           d="m 0,0 c -5.877,5.408 -13.718,8.712 -22.334,8.712 -13.869,0 -25.731,-8.56 -30.614,-20.68 3.009,-2.081 4.983,-5.552 4.983,-9.487 0,-4.561 -2.654,-8.492 -6.496,-10.363 3.408,-14.596 16.492,-25.47 32.127,-25.47 7.18,0 13.817,2.3 19.233,6.192 -3.849,6.843 -6.065,14.727 -6.065,23.139 0,10.466 3.413,20.123 9.166,27.957"
           style="fill:#ffffff;fill-opacity:1;fill-rule:nonzero;stroke:none"
           id="path150" /></g><g
         id="g152"
         transform="translate(152.8311,142.001)"><path
           d="m 0,0 c 0,9.61 -4.11,18.258 -10.666,24.288 -5.753,-7.834 -9.166,-17.491 -9.166,-27.957 0,-8.412 2.216,-16.296 6.065,-23.139 C -5.433,-20.818 0,-11.046 0,0"
           style="fill:#ffffff;fill-opacity:1;fill-rule:nonzero;stroke:none"
           id="path154" /></g><g
         id="g156"
         transform="translate(125.583,105.167)"><path
           d="m 0,0 c -8.975,0 -16.25,-7.275 -16.25,-16.25 0,-8.975 7.275,-16.25 16.25,-16.25 8.975,0 16.25,7.275 16.25,16.25 C 16.25,-7.275 8.975,0 0,0"
           style="fill:#ffffff;fill-opacity:1;fill-rule:nonzero;stroke:none"
           id="path158" /></g><g
         id="g160"
         transform="translate(89.2168,154.3213)"><path
           d="m 0,0 c -1.86,1.288 -4.115,2.046 -6.55,2.046 -6.371,0 -11.534,-5.164 -11.534,-11.533 0,-6.369 5.163,-11.534 11.534,-11.534 1.809,0 3.514,0.428 5.037,1.17 -0.564,2.42 -0.873,4.939 -0.873,7.531 0,4.356 0.853,8.512 2.386,12.32"
           style="fill:#ffffff;fill-opacity:1;fill-rule:nonzero;stroke:none"
           id="path162" /></g><g
         id="g164"
         transform="translate(94.2002,144.834)"><path
           d="M 0,0 C 0,3.936 -1.975,7.406 -4.983,9.487 -6.517,5.68 -7.369,1.523 -7.369,-2.833 c 0,-2.592 0.308,-5.11 0.873,-7.53 C -2.654,-8.492 0,-4.561 0,0"
           style="fill:#ffffff;fill-opacity:1;fill-rule:nonzero;stroke:none"
           id="path166" /></g><g
         id="g168"
         transform="translate(93.4248,215.1494)"><path
           d="m 0,0 c 0.419,1.208 0.658,2.5 0.658,3.851 0,6.489 -5.26,11.75 -11.75,11.75 -6.49,0 -11.75,-5.261 -11.75,-11.75 0,-0.138 0.016,-0.27 0.021,-0.406 2.533,0.853 5.242,1.323 8.063,1.323 C -9.247,4.768 -4.151,2.997 0,0"
           style="fill:#ffffff;fill-opacity:1;fill-rule:nonzero;stroke:none"
           id="path170" /></g><g
         id="g172"
         transform="translate(82.333,207.25)"><path
           d="m 0,0 c 5.14,0 9.496,3.304 11.092,7.899 -4.152,2.997 -9.247,4.768 -14.758,4.768 -2.821,0 -5.53,-0.47 -8.063,-1.323 C -11.514,5.044 -6.354,0 0,0"
           style="fill:#ffffff;fill-opacity:1;fill-rule:nonzero;stroke:none"
           id="path174" /></g><g
         id="g176"
         transform="translate(44.5244,209.667)"><path
           d="m 0,0 c 0,4.155 -3.368,7.524 -7.524,7.524 -4.157,0 -7.525,-3.369 -7.525,-7.524 0,-4.156 3.368,-7.525 7.525,-7.525 C -3.368,-7.525 0,-4.156 0,0"
           style="fill:#ffffff;fill-opacity:1;fill-rule:nonzero;stroke:none"
           id="path178" /></g><g
         id="g180"
         transform="translate(112.333,262.0835)"><path
           d="M 0,0 C 6.766,0 12.25,5.484 12.25,12.25 12.25,19.016 6.766,24.5 0,24.5 -6.766,24.5 -12.25,19.016 -12.25,12.25 -12.25,5.484 -6.766,0 0,0"
           style="fill:#ffffff;fill-opacity:1;fill-rule:nonzero;stroke:none"
           id="path182" /></g><g
         id="g184"
         transform="translate(18.499,181.0337)"><path
           d="m 0,0 c -5.451,0 -9.868,-4.418 -9.868,-9.868 0,-5.449 4.417,-9.867 9.868,-9.867 5.449,0 9.866,4.418 9.866,9.867 C 9.866,-4.418 5.449,0 0,0"
           style="fill:#ffffff;fill-opacity:1;fill-rule:nonzero;stroke:none"
           id="path186" /></g></g></g></svg>
