<?xml version="1.0" encoding="UTF-8" standalone="no"?>
<svg
   xmlns:i="&amp;ns_ai;"
   xmlns:dc="http://purl.org/dc/elements/1.1/"
   xmlns:cc="http://creativecommons.org/ns#"
   xmlns:rdf="http://www.w3.org/1999/02/22-rdf-syntax-ns#"
   xmlns:svg="http://www.w3.org/2000/svg"
   xmlns="http://www.w3.org/2000/svg"
   xmlns:sodipodi="http://sodipodi.sourceforge.net/DTD/sodipodi-0.dtd"
   xmlns:inkscape="http://www.inkscape.org/namespaces/inkscape"
   inkscape:version="1.0 (4035a4f, 2020-05-01)"
   sodipodi:docname="logo.svg"
   id="svg947"
   xml:space="preserve"
   enable-background="new 0 0 792 72"
   viewBox="0 0 81.085999 69.245247"
   height="69.245247"
   width="81.085999"
   y="0px"
   x="0px"
   version="1.1"><metadata
   id="metadata953"><rdf:RDF><cc:Work
       rdf:about=""><dc:format>image/svg+xml</dc:format><dc:type
         rdf:resource="http://purl.org/dc/dcmitype/StillImage" /><dc:title></dc:title></cc:Work></rdf:RDF></metadata><defs
   id="defs951">
	
	
</defs><sodipodi:namedview
   inkscape:current-layer="C_logo"
   inkscape:window-maximized="0"
   inkscape:window-y="26"
   inkscape:window-x="0"
   inkscape:cy="34.83743"
   inkscape:cx="99.540948"
   inkscape:zoom="3.5959596"
   fit-margin-bottom="3"
   fit-margin-right="3"
   fit-margin-left="3"
   fit-margin-top="3"
   lock-margins="true"
   showgrid="false"
   id="namedview949"
   inkscape:window-height="1024"
   inkscape:window-width="1680"
   inkscape:pageshadow="2"
   inkscape:pageopacity="0"
   guidetolerance="10"
   gridtolerance="10"
   objecttolerance="10"
   borderopacity="1"
   bordercolor="#666666"
   pagecolor="#ffffff" />
<g
   transform="translate(-11.336,-1.1625701)"
   i:extraneous="self"
   id="g943">
		<g
   id="ATALYST_ONE">
		</g>
		<g
   id="C_logo">
			
			
			<g
   id="g940">
				<path
   fill="#2c5baa"
   d="m 58.179,5.385 c -3.787,1.084 -7.412,2.888 -10.659,5.413 0.245,2.106 0.743,4.135 1.463,6.056 5.106,-1.426 8.905,-5.981 9.196,-11.469 z"
   id="path860" />
				<path
   fill="#467ec1"
   d="m 66.575,10.801 c -1.164,-1.622 -1.851,-3.61 -1.851,-5.76 0,-0.271 0.014,-0.54 0.035,-0.807 -2.22,0.15 -4.426,0.534 -6.581,1.15 -0.291,5.488 -4.09,10.043 -9.195,11.469 0.451,1.202 0.989,2.361 1.607,3.471 1.597,-0.75 3.379,-1.171 5.261,-1.171 1.428,0 2.797,0.245 4.073,0.688 0.112,-0.049 0.225,-0.098 0.338,-0.145 0.122,-0.051 0.245,-0.098 0.368,-0.146 0.146,-0.056 0.292,-0.111 0.439,-0.164 0.109,-0.039 0.22,-0.075 0.33,-0.111 0.154,-0.052 0.31,-0.103 0.466,-0.15 0.375,-3.389 2.139,-6.356 4.71,-8.324 z"
   id="path862" />
				<path
   fill="#2c5baa"
   d="M 66.575,10.801 C 68.318,9.468 70.429,8.594 72.732,8.363 73.296,7.218 73.977,6.141 74.763,5.15 71.491,4.315 68.111,4.008 64.759,4.235 64.738,4.502 64.724,4.77 64.724,5.042 c 10e-4,2.148 0.687,4.137 1.851,5.759 z"
   id="path864" />
				<path
   fill="#2c5baa"
   d="m 85.711,17.278 3.711,-3.698 c -0.039,-0.039 -0.076,-0.079 -0.115,-0.118 -1.729,-1.735 -3.61,-3.228 -5.6,-4.478 -0.395,0.906 -0.921,1.74 -1.554,2.482 1.69,1.537 2.943,3.544 3.558,5.812 z"
   id="path866" />
				<path
   fill="#467ec1"
   d="m 73.964,8.301 c 3.153,0 6.027,1.198 8.189,3.166 0.633,-0.742 1.159,-1.576 1.554,-2.482 C 80.902,7.223 77.882,5.947 74.764,5.15 73.978,6.141 73.297,7.218 72.733,8.363 73.138,8.321 73.548,8.301 73.964,8.301 Z"
   id="path868" />
				<path
   fill="#5b9fd6"
   d="m 55.852,19.153 c -1.882,0 -3.664,0.421 -5.261,1.171 0.851,1.528 1.851,2.961 2.982,4.277 0.079,-0.094 0.16,-0.186 0.241,-0.277 0.066,-0.076 0.13,-0.154 0.198,-0.229 0.195,-0.216 0.396,-0.425 0.602,-0.63 0.002,-0.002 0.004,-0.005 0.006,-0.008 0.034,-0.033 0.07,-0.064 0.104,-0.098 0.169,-0.166 0.339,-0.329 0.514,-0.487 0.092,-0.083 0.188,-0.162 0.28,-0.243 0.121,-0.104 0.24,-0.21 0.364,-0.311 0.121,-0.1 0.245,-0.194 0.368,-0.29 0.099,-0.077 0.196,-0.155 0.298,-0.229 0.139,-0.104 0.28,-0.201 0.421,-0.3 0.09,-0.063 0.179,-0.126 0.27,-0.187 0.148,-0.1 0.298,-0.193 0.448,-0.288 0.09,-0.056 0.179,-0.112 0.27,-0.167 0.148,-0.09 0.301,-0.176 0.453,-0.261 0.097,-0.055 0.192,-0.109 0.291,-0.161 0.145,-0.078 0.291,-0.151 0.438,-0.225 0.11,-0.056 0.221,-0.111 0.332,-0.164 0.135,-0.063 0.271,-0.123 0.408,-0.184 0.015,-0.008 0.03,-0.015 0.046,-0.021 -1.277,-0.443 -2.646,-0.688 -4.073,-0.688 z"
   id="path870" />
				<path
   fill="#2c5baa"
   d="m 62.188,19.033 c 0.175,-0.049 0.351,-0.098 0.527,-0.141 0.094,-0.023 0.189,-0.045 0.284,-0.066 0.181,-0.041 0.361,-0.082 0.544,-0.117 0.099,-0.02 0.198,-0.036 0.297,-0.054 0.178,-0.032 0.356,-0.063 0.536,-0.089 0.112,-0.018 0.227,-0.029 0.34,-0.044 0.166,-0.021 0.331,-0.042 0.498,-0.059 0.144,-0.014 0.288,-0.022 0.433,-0.033 0.138,-0.01 0.275,-0.022 0.414,-0.028 0.208,-0.01 0.418,-0.014 0.627,-0.016 0.073,-0.002 0.146,-0.006 0.22,-0.006 0.004,0 0.009,0 0.015,0 0.288,0 0.575,0.008 0.86,0.021 0.131,0.007 0.261,0.02 0.391,0.029 0.152,0.011 0.306,0.02 0.457,0.034 0.179,0.018 0.356,0.042 0.534,0.065 0.102,0.013 0.203,0.023 0.305,0.039 0.191,0.027 0.381,0.063 0.569,0.097 0.089,0.017 0.178,0.03 0.265,0.047 0.19,0.038 0.379,0.081 0.566,0.125 0.068,0.017 0.137,0.028 0.204,0.045 -0.123,-0.846 -0.188,-1.71 -0.188,-2.591 0,-0.689 0.042,-1.369 0.118,-2.039 -1.789,-0.703 -3.323,-1.914 -4.428,-3.453 -2.571,1.968 -4.335,4.936 -4.709,8.324 0.008,-0.002 0.016,-0.005 0.023,-0.007 0.098,-0.028 0.198,-0.054 0.298,-0.083 z"
   id="path872" />
				<path
   fill="#467ec1"
   d="m 66.575,10.801 c 1.104,1.539 2.639,2.75 4.428,3.453 0.237,-2.095 0.835,-4.079 1.729,-5.892 -2.302,0.232 -4.414,1.106 -6.157,2.439 z"
   id="path874" />
				<path
   fill="#467ec1"
   d="m 82.153,11.467 c -1.815,2.125 -4.514,3.475 -7.528,3.475 -1.279,0 -2.5,-0.246 -3.622,-0.688 -0.076,0.67 -0.118,1.35 -0.118,2.039 0,0.881 0.065,1.745 0.188,2.591 0.02,0.005 0.039,0.011 0.06,0.017 0.181,0.045 0.359,0.095 0.538,0.146 0.095,0.027 0.192,0.053 0.287,0.081 0.164,0.051 0.327,0.105 0.489,0.16 0.11,0.036 0.221,0.071 0.329,0.11 0.145,0.052 0.287,0.107 0.43,0.163 0.126,0.049 0.253,0.097 0.377,0.148 0.123,0.051 0.243,0.105 0.365,0.16 0.143,0.063 0.285,0.125 0.426,0.191 0.102,0.049 0.202,0.101 0.303,0.151 0.156,0.077 0.313,0.155 0.466,0.238 0.085,0.046 0.169,0.095 0.253,0.142 0.165,0.092 0.329,0.185 0.491,0.282 0.074,0.045 0.146,0.093 0.22,0.138 0.167,0.104 0.334,0.209 0.497,0.318 0.071,0.049 0.141,0.1 0.212,0.148 0.161,0.111 0.321,0.224 0.479,0.34 0.079,0.061 0.157,0.123 0.235,0.184 0.145,0.111 0.289,0.223 0.43,0.338 0.114,0.094 0.225,0.192 0.336,0.289 0.103,0.089 0.207,0.176 0.308,0.267 0.212,0.192 0.42,0.391 0.622,0.594 0.004,0.003 0.008,0.007 0.011,0.011 0.039,0.039 0.075,0.08 0.113,0.119 l 6.362,-6.341 C 85.096,15.01 83.843,13.003 82.153,11.467 Z"
   id="path876" />
				<path
   fill="#2c5baa"
   d="M 82.153,11.467 C 79.991,9.499 77.117,8.301 73.964,8.301 c -0.416,0 -0.826,0.021 -1.231,0.062 -0.895,1.813 -1.492,3.797 -1.729,5.892 1.122,0.441 2.343,0.688 3.622,0.688 3.014,-0.002 5.712,-1.351 7.527,-3.476 z"
   id="path878" />
				<path
   fill="#467ec1"
   d="m 75.724,58.533 c -0.174,0 -0.347,-0.007 -0.52,-0.013 0.433,1.444 0.667,2.974 0.667,4.56 0,1.07 -0.107,2.115 -0.309,3.127 5.002,-1.418 9.724,-4.09 13.668,-8.021 l -3.652,-3.651 c -2.548,2.473 -6.022,3.998 -9.854,3.998 z"
   id="path880" />
				<path
   fill="#2c5baa"
   d="m 67.727,58.133 c -0.927,-0.377 -1.939,-0.586 -3.002,-0.586 -4.414,0 -7.993,3.579 -7.993,7.994 0,0.065 0.003,0.13 0.005,0.195 3.632,1.229 7.442,1.781 11.235,1.654 -0.488,-1.606 -0.753,-3.311 -0.753,-5.076 0,-1.442 0.178,-2.841 0.508,-4.181 z"
   id="path882" />
				<path
   fill="#2c5baa"
   d="m 75.204,58.521 c -2.546,-0.093 -4.919,-0.855 -6.95,-2.12 -0.203,0.564 -0.382,1.142 -0.527,1.732 2.927,1.187 4.992,4.056 4.992,7.408 0,0.462 -0.042,0.913 -0.117,1.354 0.995,-0.181 1.983,-0.41 2.961,-0.688 0.201,-1.012 0.309,-2.057 0.309,-3.127 -0.001,-1.586 -0.235,-3.115 -0.668,-4.559 z"
   id="path884" />
				<path
   fill="#467ec1"
   d="m 67.727,58.133 c -0.329,1.34 -0.508,2.739 -0.508,4.182 0,1.766 0.265,3.47 0.753,5.076 1.551,-0.052 3.099,-0.217 4.63,-0.496 0.075,-0.44 0.117,-0.892 0.117,-1.354 0,-3.353 -2.066,-6.222 -4.992,-7.408 z"
   id="path886" />
				<path
   fill="#2c5baa"
   d="m 79.005,48.293 c -0.1,0.096 -0.2,0.191 -0.302,0.285 -0.123,0.113 -0.248,0.225 -0.373,0.335 -0.104,0.09 -0.208,0.179 -0.313,0.267 -0.098,0.082 -0.196,0.162 -0.295,0.241 -0.145,0.115 -0.291,0.228 -0.439,0.338 -0.107,0.08 -0.216,0.157 -0.324,0.234 -0.087,0.063 -0.175,0.122 -0.264,0.183 -0.167,0.113 -0.335,0.225 -0.504,0.331 -0.095,0.061 -0.19,0.12 -0.286,0.178 -0.107,0.064 -0.214,0.129 -0.321,0.191 -0.168,0.097 -0.339,0.19 -0.511,0.282 -0.094,0.05 -0.188,0.099 -0.282,0.146 -0.151,0.076 -0.303,0.151 -0.456,0.224 -0.08,0.038 -0.161,0.076 -0.242,0.113 -0.19,0.086 -0.383,0.169 -0.577,0.249 -0.06,0.023 -0.119,0.049 -0.179,0.072 -0.229,0.091 -0.459,0.178 -0.691,0.259 -0.024,0.009 -0.049,0.017 -0.074,0.025 -0.244,0.084 -0.491,0.163 -0.74,0.236 0,0 -0.002,10e-4 -0.003,10e-4 1.535,1.718 2.7,3.771 3.377,6.036 0.173,0.006 0.346,0.013 0.52,0.013 3.832,0 7.307,-1.525 9.854,-3.998 l -6.403,-6.403 c -0.058,0.057 -0.116,0.107 -0.172,0.162 z"
   id="path888" />
				<path
   fill="#2c5baa"
   d="m 68.254,56.4 c 0.443,-1.229 1.018,-2.396 1.712,-3.479 -0.19,0.033 -0.383,0.064 -0.575,0.092 -0.02,0.003 -0.039,0.005 -0.059,0.008 -0.257,0.036 -0.516,0.066 -0.776,0.091 -0.26,0.025 -0.522,0.043 -0.784,0.056 -0.045,0.003 -0.09,0.005 -0.135,0.007 -0.242,0.01 -0.485,0.017 -0.729,0.017 -0.009,0 -0.018,-10e-4 -0.026,-10e-4 -0.281,0 -0.562,-0.007 -0.84,-0.021 -0.17,-0.009 -0.337,-0.024 -0.506,-0.037 -0.117,-0.01 -0.235,-0.016 -0.352,-0.027 -0.197,-0.019 -0.393,-0.045 -0.588,-0.071 -0.025,-0.003 -0.05,-0.007 -0.074,-0.01 1.031,1.335 2.295,2.481 3.732,3.375 z"
   id="path890" />
				<path
   fill="#467ec1"
   d="m 71.813,52.488 c -0.261,0.077 -0.525,0.147 -0.791,0.212 -0.012,0.003 -0.023,0.005 -0.034,0.008 -0.337,0.081 -0.678,0.152 -1.021,0.214 -0.694,1.083 -1.269,2.25 -1.712,3.479 2.031,1.265 4.404,2.027 6.95,2.12 -0.677,-2.265 -1.842,-4.318 -3.377,-6.036 -0.006,0 -0.011,0.002 -0.015,0.003 z"
   id="path892" />
				<path
   fill="#467ec1"
   d="m 48.983,16.854 c -0.721,-1.921 -1.219,-3.949 -1.463,-6.056 -1.018,0.792 -2,1.654 -2.938,2.588 -1.056,1.053 -2.02,2.163 -2.896,3.317 1.228,0.398 2.537,0.617 3.897,0.617 1.179,0 2.318,-0.165 3.4,-0.466 z"
   id="path894" />
				<path
   fill="#2c5baa"
   d="M 54.6,48.094 C 54.598,48.092 54.596,48.089 54.593,48.087 54.588,48.082 54.583,48.078 54.578,48.072 54.505,48 54.437,47.923 54.366,47.848 54.243,47.72 54.119,47.593 54,47.462 53.896,47.347 53.798,47.23 53.698,47.113 53.613,47.014 53.527,46.918 53.445,46.818 53.333,46.68 53.225,46.541 53.118,46.401 53.054,46.318 52.988,46.236 52.926,46.152 52.814,46.001 52.706,45.846 52.6,45.692 52.546,45.615 52.492,45.539 52.439,45.462 52.333,45.303 52.231,45.143 52.13,44.981 52.081,44.903 52.031,44.824 51.983,44.745 51.888,44.586 51.797,44.425 51.707,44.264 51.658,44.176 51.608,44.089 51.561,44 c -0.082,-0.152 -0.16,-0.308 -0.237,-0.463 -0.052,-0.102 -0.103,-0.204 -0.151,-0.308 -0.04,-0.084 -0.08,-0.168 -0.118,-0.253 -2.652,-1.114 -4.833,-3.125 -6.167,-5.652 -0.429,0.413 -0.819,0.864 -1.173,1.346 1.442,1.326 2.347,3.229 2.347,5.344 0,2.43 -1.195,4.58 -3.029,5.897 0.931,1.654 2.295,3.031 3.946,3.968 1.871,-2.636 4.522,-4.678 7.621,-5.785 z"
   id="path896" />
				<path
   fill="#5b9fd6"
   d="m 59.906,51.722 c -0.015,-0.007 -0.028,-0.013 -0.043,-0.02 -0.143,-0.063 -0.285,-0.125 -0.426,-0.192 -0.101,-0.048 -0.2,-0.099 -0.3,-0.149 -0.157,-0.078 -0.314,-0.156 -0.47,-0.24 -0.082,-0.044 -0.163,-0.092 -0.245,-0.138 -0.167,-0.093 -0.334,-0.187 -0.499,-0.286 -0.07,-0.043 -0.139,-0.088 -0.209,-0.131 -0.17,-0.106 -0.34,-0.214 -0.508,-0.326 -0.065,-0.044 -0.129,-0.091 -0.193,-0.136 -0.167,-0.115 -0.334,-0.231 -0.498,-0.354 -0.069,-0.052 -0.136,-0.106 -0.205,-0.159 -0.154,-0.119 -0.309,-0.237 -0.46,-0.362 -0.092,-0.075 -0.179,-0.154 -0.269,-0.231 -0.125,-0.107 -0.252,-0.213 -0.375,-0.324 -0.207,-0.188 -0.41,-0.381 -0.607,-0.579 -3.099,1.107 -5.75,3.149 -7.622,5.785 1.516,0.861 3.266,1.354 5.134,1.354 3.103,-0.001 5.887,-1.359 7.795,-3.512 z"
   id="path898" />
				<path
   fill="#2c5baa"
   d="m 49.556,34.471 c 0.01,-0.135 0.018,-0.27 0.031,-0.404 0.019,-0.189 0.044,-0.378 0.069,-0.566 0.012,-0.09 0.021,-0.182 0.035,-0.271 0.029,-0.201 0.065,-0.399 0.102,-0.598 0.015,-0.079 0.026,-0.157 0.042,-0.236 0.039,-0.199 0.085,-0.396 0.131,-0.593 0.019,-0.079 0.035,-0.157 0.055,-0.235 0.047,-0.189 0.1,-0.377 0.152,-0.563 0.025,-0.087 0.049,-0.175 0.074,-0.262 0.053,-0.173 0.11,-0.344 0.168,-0.515 0.033,-0.102 0.066,-0.203 0.102,-0.303 0.056,-0.153 0.114,-0.305 0.173,-0.455 0.046,-0.117 0.091,-0.235 0.139,-0.352 0.055,-0.132 0.113,-0.262 0.171,-0.392 0.059,-0.134 0.118,-0.267 0.181,-0.399 0.053,-0.111 0.109,-0.221 0.164,-0.33 0.073,-0.147 0.146,-0.294 0.225,-0.439 0.051,-0.095 0.105,-0.188 0.157,-0.281 0.088,-0.154 0.174,-0.31 0.267,-0.463 0.051,-0.084 0.105,-0.168 0.157,-0.252 0.099,-0.155 0.195,-0.312 0.299,-0.465 0.057,-0.084 0.115,-0.165 0.174,-0.248 0.104,-0.148 0.206,-0.297 0.314,-0.443 0.071,-0.096 0.146,-0.188 0.22,-0.281 0.1,-0.129 0.197,-0.258 0.302,-0.385 0.038,-0.046 0.078,-0.091 0.116,-0.137 -1.132,-1.316 -2.132,-2.749 -2.982,-4.277 -1.153,0.542 -2.208,1.256 -3.133,2.108 1.506,1.241 2.466,3.12 2.466,5.224 0,3.523 -2.692,6.416 -6.133,6.734 0.244,1.033 0.612,2.018 1.096,2.934 1.28,-1.233 2.873,-2.144 4.649,-2.596 0.003,-0.087 0.01,-0.173 0.017,-0.259 z"
   id="path900" />
				<path
   fill="#5b9fd6"
   d="M 51.054,42.977 C 51.028,42.918 51.003,42.86 50.978,42.8 50.924,42.68 50.872,42.56 50.821,42.438 50.768,42.309 50.717,42.179 50.668,42.049 50.614,41.909 50.561,41.77 50.51,41.628 50.47,41.514 50.432,41.398 50.394,41.282 50.341,41.125 50.29,40.967 50.242,40.807 50.211,40.703 50.182,40.599 50.153,40.495 50.105,40.324 50.058,40.153 50.015,39.98 49.991,39.881 49.969,39.784 49.947,39.685 49.907,39.507 49.866,39.33 49.831,39.15 c -0.02,-0.101 -0.036,-0.201 -0.054,-0.302 -0.031,-0.177 -0.063,-0.354 -0.089,-0.531 -0.017,-0.114 -0.029,-0.229 -0.043,-0.343 -0.021,-0.165 -0.043,-0.33 -0.059,-0.496 -0.014,-0.144 -0.022,-0.286 -0.033,-0.429 -0.01,-0.141 -0.022,-0.279 -0.029,-0.42 -0.01,-0.201 -0.013,-0.402 -0.015,-0.604 -10e-4,-0.08 -0.006,-0.159 -0.006,-0.24 0,-0.005 10e-4,-0.011 10e-4,-0.017 0,-0.285 0.007,-0.57 0.021,-0.856 0.003,-0.062 0.009,-0.123 0.013,-0.185 -1.777,0.452 -3.37,1.362 -4.649,2.596 1.332,2.529 3.512,4.539 6.165,5.654 z"
   id="path902" />
				<path
   fill="#467ec1"
   d="M 64.521,53.024 C 64.461,53.017 64.402,53.01 64.343,53.002 64.14,52.972 63.94,52.936 63.739,52.898 63.663,52.884 63.586,52.873 63.51,52.857 63.312,52.818 63.115,52.773 62.918,52.726 62.839,52.708 62.76,52.691 62.681,52.671 c -0.187,-0.046 -0.37,-0.098 -0.554,-0.15 -0.091,-0.026 -0.182,-0.05 -0.272,-0.077 -0.168,-0.051 -0.334,-0.106 -0.499,-0.163 -0.106,-0.035 -0.214,-0.069 -0.319,-0.107 -0.146,-0.053 -0.29,-0.109 -0.435,-0.165 -0.125,-0.048 -0.249,-0.096 -0.373,-0.147 -0.108,-0.045 -0.215,-0.093 -0.322,-0.14 -1.908,2.153 -4.692,3.512 -7.795,3.512 -1.868,0 -3.618,-0.493 -5.134,-1.354 -0.96,1.352 -1.718,2.857 -2.22,4.477 3.504,3.441 7.612,5.901 11.979,7.381 -0.002,-0.065 -0.005,-0.13 -0.005,-0.195 0,-4.415 3.579,-7.994 7.993,-7.994 1.063,0 2.075,0.209 3.002,0.586 0.146,-0.591 0.324,-1.168 0.527,-1.732 -1.437,-0.897 -2.701,-2.043 -3.733,-3.379 z"
   id="path904" />
				<path
   fill="#6eb3e3"
   d="m 47.458,22.433 c -1.169,-0.963 -2.666,-1.542 -4.299,-1.542 -0.141,0 -0.279,0.006 -0.418,0.015 0.315,0.606 0.496,1.294 0.496,2.024 0,2.431 -1.97,4.4 -4.4,4.4 -0.872,0 -1.683,-0.257 -2.367,-0.694 -0.05,0.333 -0.076,0.674 -0.076,1.021 0,3.736 3.028,6.766 6.765,6.766 0.213,0 0.424,-0.012 0.632,-0.031 -0.215,-0.913 -0.333,-1.864 -0.333,-2.844 0,-3.608 1.542,-6.852 4,-9.115 z"
   id="path906" />
				<path
   fill="#5b9fd6"
   d="m 49.924,27.656 c 0,-2.104 -0.96,-3.982 -2.466,-5.224 -2.458,2.264 -4,5.508 -4,9.114 0,0.979 0.118,1.931 0.333,2.844 3.44,-0.318 6.133,-3.21 6.133,-6.734 z"
   id="path908" />
				<path
   fill="#d5bb70"
   d="m 42.741,20.905 c -0.733,-1.41 -2.204,-2.375 -3.904,-2.375 -2.43,0 -4.4,1.97 -4.4,4.399 0,1.559 0.812,2.924 2.033,3.706 0.473,-3.116 3.072,-5.534 6.271,-5.73 z"
   id="path910" />
				<path
   fill="#a8b8aa"
   d="m 43.237,22.93 c 0,-0.73 -0.181,-1.418 -0.496,-2.024 -3.199,0.195 -5.798,2.613 -6.271,5.73 0.684,0.438 1.495,0.694 2.367,0.694 2.431,0 4.4,-1.97 4.4,-4.4 z"
   id="path912" />
				<path
   fill="#fdc010"
   d="m 24.189,32.427 c 0,-0.276 0.021,-0.547 0.06,-0.812 -2.19,0.252 -3.892,2.11 -3.892,4.368 0,2.43 1.97,4.4 4.4,4.4 1.748,0 3.252,-1.021 3.963,-2.498 -2.578,-0.48 -4.531,-2.74 -4.531,-5.458 z"
   id="path914" />
				<path
   fill="#fdc010"
   d="m 29.158,35.983 c 0,0.683 -0.16,1.326 -0.437,1.902 0.332,0.063 0.674,0.096 1.023,0.096 3.068,0 5.555,-2.487 5.555,-5.555 0,-1.855 -0.911,-3.497 -2.308,-4.506 -0.351,1.011 -1.31,1.737 -2.44,1.737 -1.397,0 -2.533,-1.109 -2.58,-2.496 -1.95,0.658 -3.416,2.366 -3.722,4.453 0.167,-0.02 0.336,-0.031 0.509,-0.031 2.43,0.001 4.4,1.97 4.4,4.4 z"
   id="path916" />
				<path
   fill="#d5bb70"
   d="m 28.721,37.886 c 0.277,-0.576 0.437,-1.22 0.437,-1.902 0,-2.431 -1.97,-4.399 -4.4,-4.399 -0.172,0 -0.342,0.012 -0.509,0.031 -0.039,0.265 -0.06,0.535 -0.06,0.812 0,2.717 1.953,4.977 4.532,5.458 z"
   id="path918" />
				<path
   fill="#a8b8aa"
   d="m 43.714,38.67 c -1.293,-1.189 -3.018,-1.916 -4.913,-1.916 -3.052,0 -5.661,1.883 -6.735,4.549 0.662,0.458 1.096,1.222 1.096,2.087 0,1.004 -0.584,1.868 -1.429,2.28 0.75,3.211 3.628,5.604 7.068,5.604 1.579,0 3.04,-0.506 4.231,-1.362 -0.847,-1.506 -1.334,-3.24 -1.334,-5.091 -10e-4,-2.303 0.75,-4.427 2.016,-6.151 z"
   id="path920" />
				<path
   fill="#467ec1"
   d="m 46.061,44.014 c 0,-2.114 -0.904,-4.018 -2.347,-5.344 -1.266,1.724 -2.017,3.848 -2.017,6.15 0,1.851 0.488,3.585 1.334,5.091 1.834,-1.317 3.03,-3.468 3.03,-5.897 z"
   id="path922" />
				<circle
   fill="#a8b8aa"
   cx="40.066002"
   cy="55.692001"
   r="3.575"
   id="circle924" />
				<path
   fill="#fdc010"
   d="m 32.065,41.303 c -0.409,-0.283 -0.905,-0.45 -1.441,-0.45 -1.402,0 -2.538,1.136 -2.538,2.537 0,1.401 1.136,2.538 2.538,2.538 0.398,0 0.773,-0.095 1.108,-0.258 -0.124,-0.532 -0.192,-1.086 -0.192,-1.656 0.001,-0.959 0.188,-1.873 0.525,-2.711 z"
   id="path926" />
				<path
   fill="#d5bb70"
   d="m 33.162,43.39 c 0,-0.865 -0.434,-1.629 -1.096,-2.087 -0.337,0.838 -0.525,1.752 -0.525,2.711 0,0.57 0.068,1.124 0.192,1.656 0.845,-0.412 1.429,-1.276 1.429,-2.28 z"
   id="path928" />
				<path
   fill="#fdc010"
   d="m 32.991,27.921 c 0.092,-0.267 0.145,-0.55 0.145,-0.848 0,-1.428 -1.157,-2.585 -2.585,-2.585 -1.428,0 -2.585,1.157 -2.585,2.585 0,0.03 0.003,0.06 0.005,0.089 0.557,-0.188 1.153,-0.29 1.773,-0.29 1.213,0 2.334,0.39 3.247,1.049 z"
   id="path930" />
				<path
   fill="#d5bb70"
   d="m 30.551,29.658 c 1.131,0 2.089,-0.727 2.44,-1.737 -0.913,-0.659 -2.034,-1.049 -3.247,-1.049 -0.62,0 -1.216,0.103 -1.773,0.29 0.047,1.387 1.182,2.496 2.58,2.496 z"
   id="path932" />
				<circle
   fill="#fdc010"
   cx="20.577999"
   cy="29.127001"
   r="1.655"
   id="circle934" />
				<circle
   fill="#fdc010"
   cx="37.151001"
   cy="14.9"
   r="2.6949999"
   id="circle936" />
				<circle
   fill="#fdc010"
   cx="16.507"
   cy="37.597"
   r="2.171"
   id="circle938" />
			</g>
		</g>
	</g>

</svg>
